<?xml version="1.0" encoding="UTF-8"?>
<svg width="24px" height="24px" viewBox="0 0 24 24" version="1.1" xmlns="http://www.w3.org/2000/svg" xmlns:xlink="http://www.w3.org/1999/xlink">
    <!-- Generator: Sketch 43 (38999) - http://www.bohemiancoding.com/sketch -->
    <title>cancel</title>
    <desc>Created with Sketch.</desc>
    <defs></defs>
    <g id="Web6.0" stroke="none" stroke-width="1" fill="none" fill-rule="evenodd">
        <g id="cancel" fill="#DAC2AB">
            <g id="Combined-Shape">
                <path d="M13.4096353,11.9903647 L18,7.4 L16.6,6 L12.0096353,10.5903647 L12,10.5807294 L11.9903647,10.5903647 L7.4,6 L6,7.4 L10.5903647,11.9903647 L6,16.5807294 L7.4,17.9807294 L11.9903647,13.3903647 L12,13.4 L12.0096353,13.3903647 L16.6,17.9807294 L18,16.5807294 L13.4096353,11.9903647 Z M12,24 C5.372583,24 0,18.627417 0,12 C0,5.372583 5.372583,0 12,0 C18.627417,0 24,5.372583 24,12 C24,18.627417 18.627417,24 12,24 Z"></path>
            </g>
        </g>
    </g>
</svg>