<?xml version="1.0" encoding="UTF-8"?>
<svg width="180px" height="22px" viewBox="0 0 180 22" version="1.1" xmlns="http://www.w3.org/2000/svg" xmlns:xlink="http://www.w3.org/1999/xlink">
    <!-- Generator: Sketch 41.2 (35397) - http://www.bohemiancoding.com/sketch -->
    <title>Naturali_logo</title>
    <desc>Created with Sketch.</desc>
    <defs></defs>
    <g id="icon" stroke="none" stroke-width="1" fill="none" fill-rule="evenodd">
        <g id="iPhone-7" transform="translate(-50.000000, -232.000000)" fill="#DAC2AB">
            <g id="Naturali_logo" transform="translate(50.000000, 232.000000)">
                <path d="M67.8182047,2.42045601 L60.3967457,2.42045601 L60.3967457,21.2970129 L57.8161987,21.2970129 L57.8161987,2.42045601 L50.3947396,2.42045601 L50.3947396,0 L67.8182047,0 L67.8182047,2.42045601 Z M93.6616659,13.3435445 C93.6616659,16.0751825 92.9427563,18.1318201 91.5161191,19.5205482 C90.0837546,20.9073672 88.0142988,21.6000949 85.3052972,21.6000949 C82.5943864,21.6000949 80.5192033,20.9038218 79.0925661,19.5039118 C77.661838,18.1048201 76.9464739,16.0541825 76.9464739,13.3435445 L76.9464739,8.18182314e-05 L79.5270209,8.18182314e-05 L79.5270209,12.6977259 C79.5270209,14.9343636 79.9939303,16.5767282 80.9315672,17.6166379 C81.8656587,18.6625477 83.3266596,19.1831844 85.3052972,19.1831844 C87.2825711,19.1831844 88.7408447,18.6625477 89.6773907,17.6166379 C90.6117549,16.5767282 91.0794825,14.9343636 91.0794825,12.6977259 L91.0794825,8.18182314e-05 L93.6616659,8.18182314e-05 L93.6616659,13.3435445 Z M113.345441,12.1675437 C114.803442,11.7772708 115.957625,11.0700885 116.797898,10.0353606 C117.634899,9.00526909 118.054899,7.73790469 118.054899,6.23244923 C118.054899,4.31544807 117.397353,2.79662897 116.088807,1.68035556 C114.772897,0.563536705 113.031805,8.18182314e-05 110.85844,8.18182314e-05 L102.789799,8.18182314e-05 L102.789799,21.2970947 L105.374437,21.2970947 L105.374437,12.457453 L105.374437,10.0353606 L105.374437,2.42053783 L110.824894,2.42053783 C113.843714,2.42053783 115.345079,3.69035678 115.345079,6.23244923 C115.345079,8.77045077 113.843714,10.0353606 110.824894,10.0353606 L108.896166,10.0353606 L110.471712,12.457453 L116.279443,21.2970947 L119.343263,21.2970947 L113.345441,12.1675437 Z M135.239291,0 L125.42874,21.2970129 L128.141287,21.2970129 L135.176018,5.98800363 L135.239291,5.98800363 L142.308386,21.2970129 L145.050661,21.2970129 L135.239291,0 Z M166.92681,18.8782478 L166.92681,21.2970675 L152.14771,21.2970675 L152.14771,5.45454876e-05 L154.729621,5.45454876e-05 L154.729621,18.8782478 L166.92681,18.8782478 Z M36.5280494,0 L26.7221344,21.2970129 L29.4308633,21.2970129 L36.4691403,5.98800363 L36.5280494,5.98800363 L43.5971446,21.2970129 L46.3388735,21.2970129 L36.5280494,0 Z M18.7376568,0 L2.47437423,0 C2.25701046,0.000818182314 2.0794649,0.178363744 2.0794649,0.395454785 C2.0794649,0.505363943 2.1241922,0.60463673 2.19510133,0.676636774 L13.9493812,11.5240979 L13.9619266,11.5366434 C14.0344721,11.6042798 14.1285631,11.6473707 14.2341086,11.6473707 C14.452836,11.6473707 14.6303816,11.4698251 14.6303816,11.2500068 L14.6303816,5.49054878 L14.6303816,5.47663968 C14.632018,5.20309406 14.7446544,4.95354846 14.9222,4.77327562 L14.9309272,4.76373016 L19.0161115,0.678545866 L19.0188388,0.675000409 C19.0900207,0.603818548 19.1339298,0.505363943 19.1339298,0.396545695 C19.1339298,0.177545562 18.9563842,0 18.7376568,0 Z M16.938283,20.6198307 L5.18482132,9.7718241 L5.17145768,9.75927864 C5.09945764,9.69273315 5.0056394,9.65046039 4.90091206,9.65046039 C4.68082102,9.65046039 4.50354818,9.82800596 4.50354818,10.0467334 L4.50354818,15.8061914 L4.50354818,15.8203732 C4.50163909,16.0939188 4.3903663,16.3434645 4.21172983,16.5234646 L4.20300255,16.5332827 L0.117818253,20.618467 L0.115909161,20.6220125 C0.0439091175,20.6929216 0,20.7913762 0,20.9004672 C0,21.1183764 0.177545562,21.2970129 0.397363877,21.2970129 L16.6606465,21.2970129 C16.8766466,21.295922 17.0541922,21.1183764 17.0541922,20.9004672 C17.0541922,20.7913762 17.0108285,20.6923762 16.938283,20.6209216 L16.938283,20.6198307 Z M179.710091,3.45237482 L179.704636,3.44801118 L176.677907,0.65473676 L176.664543,0.641645843 C176.59418,0.576736713 176.501998,0.533373051 176.397543,0.533373051 C176.182089,0.533373051 176.006452,0.709282248 176.006452,0.924464197 L176.006452,16.2465644 L176.006452,20.2747487 C176.006452,20.4907488 176.182089,20.6655671 176.397543,20.6655671 C176.503907,20.6655671 176.599907,20.6227489 176.670271,20.5551125 L176.675725,20.5472034 L179.703273,17.5218379 L179.712545,17.5120197 C179.889273,17.3320196 180,17.0841104 180,16.8116556 L180,4.15628434 C180,3.88137508 179.888182,3.63264766 179.710091,3.45237482 Z"></path>
            </g>
        </g>
    </g>
</svg>