<?xml version="1.0" encoding="UTF-8"?>
<svg width="36px" height="36px" viewBox="0 0 36 36" version="1.1" xmlns="http://www.w3.org/2000/svg" xmlns:xlink="http://www.w3.org/1999/xlink">
    <!-- Generator: Sketch 41.2 (35397) - http://www.bohemiancoding.com/sketch -->
    <title>logo</title>
    <desc>Created with Sketch.</desc>
    <defs>
        <path d="M79.002326,45.6846523 C79.6332149,46.635788 80,47.7775259 80,49.0053227 L80,72.9946773 C80,76.3235601 77.3113255,79 73.9946773,79 L50.0053227,79 C48.7753817,79 47.6345072,78.6329631 46.6847854,78.0028268 C46.1076066,75.8324205 45.8,73.5521329 45.8,71.2 C45.8,56.6196826 57.6196826,44.8 72.2,44.8 C74.5519512,44.8 76.8320681,45.107559 79.002326,45.6846523 Z" id="path-1"></path>
        <filter x="-50%" y="-50%" width="200%" height="200%" filterUnits="objectBoundingBox" id="filter-2">
            <feGaussianBlur stdDeviation="1" in="SourceAlpha" result="shadowBlurInner1"></feGaussianBlur>
            <feOffset dx="0" dy="1" in="shadowBlurInner1" result="shadowOffsetInner1"></feOffset>
            <feComposite in="shadowOffsetInner1" in2="SourceAlpha" operator="arithmetic" k2="-1" k3="1" result="shadowInnerInner1"></feComposite>
            <feColorMatrix values="0 0 0 0 0   0 0 0 0 0   0 0 0 0 0  0 0 0 0.12 0" type="matrix" in="shadowInnerInner1"></feColorMatrix>
        </filter>
        <path d="M60.0933926,79 L73.9946773,79 C77.3113255,79 80,76.3235601 80,72.9946773 L80,59.0933926 C77.7522592,57.6422364 75.074487,56.8 72.2,56.8 C64.2470996,56.8 57.8,63.2470996 57.8,71.2 C57.8,74.074487 58.6422364,76.7522592 60.0933926,79 Z" id="path-3"></path>
        <filter x="-50%" y="-50%" width="200%" height="200%" filterUnits="objectBoundingBox" id="filter-4">
            <feGaussianBlur stdDeviation="1" in="SourceAlpha" result="shadowBlurInner1"></feGaussianBlur>
            <feOffset dx="0" dy="1" in="shadowBlurInner1" result="shadowOffsetInner1"></feOffset>
            <feComposite in="shadowOffsetInner1" in2="SourceAlpha" operator="arithmetic" k2="-1" k3="1" result="shadowInnerInner1"></feComposite>
            <feColorMatrix values="0 0 0 0 0   0 0 0 0 0   0 0 0 0 0  0 0 0 0.12 0" type="matrix" in="shadowInnerInner1"></feColorMatrix>
        </filter>
        <path d="M72.2,78.4 C76.1764502,78.4 79.4,75.1764502 79.4,71.2 C79.4,67.2235498 76.1764502,64 72.2,64 C68.2235498,64 65,67.2235498 65,71.2 C65,75.1764502 68.2235498,78.4 72.2,78.4 Z" id="path-5"></path>
        <filter x="-50%" y="-50%" width="200%" height="200%" filterUnits="objectBoundingBox" id="filter-6">
            <feGaussianBlur stdDeviation="1" in="SourceAlpha" result="shadowBlurInner1"></feGaussianBlur>
            <feOffset dx="0" dy="1" in="shadowBlurInner1" result="shadowOffsetInner1"></feOffset>
            <feComposite in="shadowOffsetInner1" in2="SourceAlpha" operator="arithmetic" k2="-1" k3="1" result="shadowInnerInner1"></feComposite>
            <feColorMatrix values="0 0 0 0 0   0 0 0 0 0   0 0 0 0 0  0 0 0 0.12 0" type="matrix" in="shadowInnerInner1"></feColorMatrix>
        </filter>
    </defs>
    <g id="icon" stroke="none" stroke-width="1" fill="none" fill-rule="evenodd">
        <g id="iPhone-7" transform="translate(-44.000000, -43.000000)">
            <rect id="Mask" fill="#1CC4F8" transform="translate(62.000000, 61.000000) scale(1, -1) rotate(180.000000) translate(-62.000000, -61.000000) " x="44" y="43" width="36" height="36" rx="6"></rect>
            <g id="Combined-Shape">
                <use fill="#00AEED" fill-rule="evenodd" xlink:href="#path-1"></use>
                <use fill="black" fill-opacity="1" filter="url(#filter-2)" xlink:href="#path-1"></use>
            </g>
            <g id="Combined-Shape">
                <use fill="#009EE3" fill-rule="evenodd" xlink:href="#path-3"></use>
                <use fill="black" fill-opacity="1" filter="url(#filter-4)" xlink:href="#path-3"></use>
            </g>
            <g id="Combined-Shape">
                <use fill="#009AE0" fill-rule="evenodd" xlink:href="#path-5"></use>
                <use fill="black" fill-opacity="1" filter="url(#filter-6)" xlink:href="#path-5"></use>
            </g>
            <path d="M74.0599571,78.9996541 C77.3248798,78.9650381 79.9650076,76.3366705 79.999655,73.0599581 L76.3164131,69.3767161 C74.6742393,67.7345423 72.0100505,67.7296465 70.3698485,69.3698485 C68.7329839,71.006713 68.7327212,73.6724182 70.3767161,75.3164131 L74.059963,78.99966 Z" id="Combined-Shape" fill="#FFFFFF"></path>
            <path d="M72.8276372,73.5543691 C71.3871442,73.5543691 70.219357,73.9916774 70.219357,72.5511844 C70.219357,71.1106914 71.3871442,69.9429041 72.8276372,69.9429041 C74.2681302,69.9429041 75.4359175,71.1106914 75.4359175,72.5511844 C75.4359175,73.9916774 74.2681302,73.5543691 72.8276372,73.5543691" id="Fill-9" fill="#1CC4F9" transform="translate(72.827637, 71.779843) rotate(-405.000000) translate(-72.827637, -71.779843) "></path>
            <path d="M72.8276372,73.5543691 C71.3871442,73.5543691 70.219357,73.9916774 70.219357,72.5511844 C70.219357,71.1106914 71.3871442,69.9429041 72.8276372,69.9429041 C74.2681302,69.9429041 75.4359175,71.1106914 75.4359175,72.5511844 C75.4359175,73.9916774 74.2681302,73.5543691 72.8276372,73.5543691" id="Fill-11" fill-opacity="0.1" fill="#000000" transform="translate(72.827637, 71.779843) rotate(-405.000000) translate(-72.827637, -71.779843) "></path>
            <path d="M72.9410268,70.2169558 C71.555749,70.2169558 70.4232739,71.2970246 70.3384446,72.6608742 C70.4232739,73.9109227 71.555749,73.5074016 72.9410268,73.5074016 C74.3263045,73.5074016 75.4587796,73.9109227 75.5436089,72.6608742 C75.4587796,71.2970246 74.3263045,70.2169558 72.9410268,70.2169558" id="Fill-13" fill="#1CC4F9" transform="translate(72.941027, 71.893233) rotate(-405.000000) translate(-72.941027, -71.893233) "></path>
        </g>
    </g>
</svg>