<?xml version="1.0" encoding="UTF-8"?>
<svg width="96px" height="96px" viewBox="0 0 96 96" version="1.1" xmlns="http://www.w3.org/2000/svg" xmlns:xlink="http://www.w3.org/1999/xlink">
    <!-- Generator: Sketch 43 (38999) - http://www.bohemiancoding.com/sketch -->
    <title>qrcode</title>
    <desc>Created with Sketch.</desc>
    <defs></defs>
    <g id="移动端" stroke="none" stroke-width="1" fill="none" fill-rule="evenodd">
        <g id="qrcode" fill="#E0CAAA">
            <g id="Page-1">
                <path d="M7.44050072,15.098323 L14.8456586,15.098323 L14.8456586,7.71880308 L7.44050072,7.71880308 L7.44050072,15.098323 Z M5.00353057,17.5268559 L17.2859948,17.5268559 L17.2859948,5.28691583 L5.00353057,5.28691583 L5.00353057,17.5268559 Z" id="Fill-1"></path>
                <path d="M7.44050072,88.5513809 L14.8456586,88.5513809 L14.8456586,81.171861 L7.44050072,81.171861 L7.44050072,88.5513809 Z M5.00353057,90.9799139 L17.2859948,90.9799139 L17.2859948,78.7399738 L5.00353057,78.7399738 L5.00353057,90.9799139 Z" id="Fill-2"></path>
                <path d="M81.1184561,15.098323 L88.523614,15.098323 L88.523614,7.71880308 L81.1184561,7.71880308 L81.1184561,15.098323 Z M78.67812,17.5268559 L90.9605842,17.5268559 L90.9605842,5.28691583 L78.67812,5.28691583 L78.67812,17.5268559 Z" id="Fill-3"></path>
                <polygon id="Fill-4" points="2.00942104 29.7483472 5.50176529 29.7483472 5.50176529 27.2627908 2.00942104 27.2627908"></polygon>
                <polygon id="Fill-5" points="17.245603 32.237258 26.3271446 32.237258 26.3271446 29.7500244 17.245603 29.7500244"></polygon>
                <polygon id="Fill-6" points="14.7480452 34.7110744 17.24392 34.7110744 17.24392 32.2255179 14.7480452 32.2255179"></polygon>
                <polygon id="Fill-7" points="22.1431052 24.8426436 25.9803234 24.8426436 25.9803234 22.4292052 22.1431052 22.4292052"></polygon>
                <polygon id="Fill-8" points="26.3162886 17.4782182 33.7483744 17.4782182 33.7483744 15.0664569 26.3162886 15.0664569"></polygon>
                <polygon id="Fill-9" points="23.3010026 12.5741918 27.1382208 12.5741918 27.1382208 10.1624305 23.3010026 10.1624305"></polygon>
                <polygon id="Fill-10" points="24.632248 7.67016534 27.1382208 7.67016534 27.1382208 5.25840405 24.632248 5.25840405"></polygon>
                <polygon id="Fill-11" points="0 95.9057434 2.50765575 95.9057434 2.50765575 0.401338207 0 0.401338207"></polygon>
                <polygon id="Fill-12" points="93.463191 95.9057434 95.9691637 95.9057434 95.9691637 0.401338207 93.463191 0.401338207"></polygon>
                <polygon id="Fill-13" points="21.1567337 5.22821511 24.6490779 5.22821511 24.6490779 1.57786849 21.1567337 1.57786849"></polygon>
                <polygon id="Fill-14" points="27.1331718 10.1221786 29.6391446 10.1221786 29.6391446 7.71041726 27.1331718 7.71041726"></polygon>
                <polygon id="Fill-15" points="29.6155827 7.67016534 32.1215555 7.67016534 32.1215555 5.25840405 29.6155827 5.25840405"></polygon>
                <polygon id="Fill-16" points="29.6155827 12.5741918 34.2872584 12.5741918 34.2872584 10.1624305 29.6155827 10.1624305"></polygon>
                <polygon id="Fill-17" points="33.2841663 14.9876302 38.901533 14.9876302 38.901533 12.5758689 33.2841663 12.5758689"></polygon>
                <polygon id="Fill-18" points="39.3634633 17.4010687 41.8694361 17.4010687 41.8694361 14.9876302 39.3634633 14.9876302"></polygon>
                <polygon id="Fill-19" points="40.7248635 17.4530607 44.2172078 17.4530607 44.2172078 15.0412994 40.7248635 15.0412994"></polygon>
                <polygon id="Fill-20" points="39.3634633 19.8145071 41.8694361 19.8145071 41.8694361 10.1454183 39.3634633 10.1454183"></polygon>
                <polygon id="Fill-21" points="44.2188908 19.8681763 46.7248635 19.8681763 46.7248635 17.4547379 44.2188908 17.4547379"></polygon>
                <polygon id="Fill-22" points="49.5509102 7.65171654 54.2225859 7.65171654 54.2225859 5.27167958 49.5509102 5.27167958"></polygon>
                <polygon id="Fill-23" points="54.1619983 5.22821511 56.667971 5.22821511 56.667971 1.57786849 54.1619983 1.57786849"></polygon>
                <polygon id="Fill-24" points="71.3083048 12.5741918 73.8142776 12.5741918 73.8142776 10.1624305 71.3083048 10.1624305"></polygon>
                <polygon id="Fill-25" points="65.4654436 22.4412865 79.6571388 22.4412865 79.704268 19.9509149 65.5125728 19.9509149"></polygon>
                <polygon id="Fill-26" points="61.5789371 24.7369823 64.0849099 24.7369823 64.0849099 22.3252211 61.5789371 22.3252211"></polygon>
                <polygon id="Fill-27" points="59.0780133 27.1604838 61.5839861 27.1604838 61.5839861 24.7487225 59.0780133 24.7487225"></polygon>
                <polygon id="Fill-28" points="65.5655254 34.6305705 68.9470693 34.6305705 68.9470693 32.2188092 65.5655254 32.2188092"></polygon>
                <polygon id="Fill-29" points="68.9470693 37.044009 71.453042 37.044009 71.453042 34.6305705 68.9470693 34.6305705"></polygon>
                <polygon id="Fill-30" points="63.2692528 41.8775945 66.4495114 41.8775945 66.4495114 39.4641561 63.2692528 39.4641561"></polygon>
                <polygon id="Fill-31" points="61.4476639 46.7749123 63.9536366 46.7749123 63.9536366 44.3614739 61.4476639 44.3614739"></polygon>
                <polygon id="Fill-32" points="80.6806705 54.0839914 84.0622144 54.0839914 84.0622144 51.7996945 80.6806705 51.7996945"></polygon>
                <polygon id="Fill-33" points="71.3941374 61.5490466 76.3303483 61.5490466 76.3303483 59.1372854 71.3941374 59.1372854"></polygon>
                <polygon id="Fill-34" points="63.9485877 61.5490466 66.4528774 61.5490466 66.4528774 59.1372854 63.9485877 59.1372854"></polygon>
                <polygon id="Fill-35" points="61.45095 61.5490466 71.456408 61.5490466 71.456408 59.1372854 61.45095 59.1372854"></polygon>
                <polygon id="Fill-36" points="65.4453051 51.712482 73.4316256 51.712482 73.4316256 49.2990436 65.4453051 49.2990436"></polygon>
                <polygon id="Fill-37" points="63.9485877 51.7040962 66.4528774 51.7040962 66.4528774 46.7765895 63.9485877 46.7765895"></polygon>
                <polygon id="Fill-38" points="59.0174257 68.9252122 63.9536366 68.9252122 63.9536366 63.9977055 59.0174257 63.9977055"></polygon>
                <polygon id="Fill-38" points="62 68.9252122 66.4478285 68.9252122 66.4478285 66.4396558 62 66.4396558"></polygon>
                <polygon id="Fill-39" points="61.4476639 76.2812519 65.2848821 76.2812519 65.2848821 71.3554223 61.4476639 71.3554223"></polygon>
                <polygon id="Fill-40" points="66.4495114 54.2248731 68.9554842 54.2248731 68.9554842 49.2973664 66.4495114 49.2973664"></polygon>
                <polygon id="Fill-41" points="76.2529307 59.0701988 78.7589035 59.0701988 78.7589035 54.2600935 76.2529307 54.2600935"></polygon>
                <polygon id="Fill-42" points="71.3167198 61.5255664 73.8226926 61.5255664 73.8226926 49.2990436 71.3167198 49.2990436"></polygon>
                <polygon id="Fill-43" points="71.3083048 29.6577804 73.8142776 29.6577804 73.8142776 27.2460191 71.3083048 27.2460191"></polygon>
                <polygon id="Fill-44" points="78.7521715 27.224216 81.2581443 27.224216 81.2581443 24.8107775 78.7521715 24.8107775"></polygon>
                <polygon id="Fill-45" points="83.6193799 37.044009 86.1253527 37.044009 86.1253527 34.6305705 83.6193799 34.6305705"></polygon>
                <polygon id="Fill-46" points="90.9605842 42.1887973 94.4529284 42.1887973 94.4529284 39.1529534 90.9605842 39.1529534"></polygon>
                <polygon id="Fill-47" points="82.7438088 41.8775945 86.1253527 41.8775945 86.1253527 39.4641561 82.7438088 39.4641561"></polygon>
                <polygon id="Fill-48" points="90.9605842 61.5255664 94.4529284 61.5255664 94.4529284 51.7996945 90.9605842 51.7996945"></polygon>
                <polygon id="Fill-49" points="90.9134604 29.8104023 94.7506786 29.8104023 94.7506786 26.622206 90.9134604 26.622206"></polygon>
                <polygon id="Fill-50" points="76.2550049 32.1399826 85.9566329 32.1399826 85.9566329 29.7265441 76.2550049 29.7265441"></polygon>
                <polygon id="Fill-51" points="90.9605842 25.5 94.7978024 25.5 94.7978024 22.3118037 90.9605842 22.3118037"></polygon>
                <polygon id="Fill-52" points="51.9962953 27.224216 56.667971 27.224216 56.667971 24.8107775 51.9962953 24.8107775"></polygon>
                <polygon id="Fill-53" points="44.2188908 29.6577804 48.8905664 29.6577804 48.8905664 27.2460191 44.2188908 27.2460191"></polygon>
                <polygon id="Fill-54" points="40.988816 27.224216 44.3703599 27.224216 44.3703599 24.8107775 40.988816 24.8107775"></polygon>
                <polygon id="Fill-55" points="34.501304 27.224216 37.0072767 27.224216 37.0072767 24.8107775 34.501304 24.8107775"></polygon>
                <polygon id="Fill-56" points="39.3634633 37.0909696 41.8694361 37.0909696 41.8694361 34.6775311 39.3634633 34.6775311"></polygon>
                <polygon id="Fill-57" points="27.0675352 29.6577804 29.573508 29.6577804 29.573508 27.2460191 27.0675352 27.2460191"></polygon>
                <polygon id="Fill-58" points="27.0675352 34.6305705 29.573508 34.6305705 29.573508 32.2188092 27.0675352 32.2188092"></polygon>
                <polygon id="Fill-59" points="23.6105338 44.5157729 27.102878 44.5157729 27.102878 39.5698174 23.6105338 39.5698174"></polygon>
                <polygon id="Fill-60" points="17.2371881 46.8369674 19.7431608 46.8369674 19.7431608 44.4235289 17.2371881 44.4235289"></polygon>
                <polygon id="Fill-61" points="24.632248 49.2755633 27.1382208 49.2755633 27.1382208 46.863802 24.632248 46.863802"></polygon>
                <polygon id="Fill-62" points="27.0086305 51.7477024 29.5146033 51.7477024 29.5146033 49.3359412 27.0086305 49.3359412"></polygon>
                <polygon id="Fill-63" points="32.0777977 51.7477024 35.9136686 51.7477024 35.9136686 49.2914922 32.0777977 49.2914922"></polygon>
                <polygon id="Fill-64" points="27.0069476 56.7003666 31.9431585 56.7003666 31.9431585 54.2886053 27.0069476 54.2886053"></polygon>
                <polygon id="Fill-65" points="4.8924532 51.7477024 7.39842596 51.7477024 7.39842596 49.3359412 4.8924532 49.3359412"></polygon>
                <polygon id="Fill-66" points="9.8909348 59.1138051 12.3969076 59.1138051 12.3969076 56.7003666 9.8909348 56.7003666"></polygon>
                <polygon id="Fill-67" points="1.17270872 64.0597606 5.00857954 64.0597606 5.00857954 61.6463221 1.17270872 61.6463221"></polygon>
                <polygon id="Fill-68" points="27.0086305 73.720223 29.5146033 73.720223 29.5146033 71.3084617 27.0086305 71.3084617"></polygon>
                <polygon id="Fill-69" points="34.4255694 73.7923411 41.8576552 73.7923411 41.8576552 71.3789026 34.4255694 71.3789026"></polygon>
                <polygon id="Fill-70" points="41.8189464 66.4513959 47.4363131 66.4513959 47.4363131 64.0219621 41.8189464 64.0219621"></polygon>
                <polygon id="Fill-71" points="39.4055381 68.8581257 41.8273613 68.8581257 41.8273613 66.4446872 39.4055381 66.4446872"></polygon>
                <polygon id="Fill-72" points="51.7132472 64.0597606 54.1333874 64.0597606 54.1333874 61.6463221 51.7132472 61.6463221"></polygon>
                <polygon id="Fill-73" points="49.2224213 61.5943301 51.6425616 61.5943301 51.6425616 59.1808916 49.2224213 59.1808916"></polygon>
                <polygon id="Fill-74" points="76.2933225 76.2812519 78.7151458 76.2812519 78.7151458 73.8694906 76.2933225 73.8694906"></polygon>
                <polygon id="Fill-75" points="76.2933225 81.1098059 78.7151458 81.1098059 78.7151458 78.6980447 76.2933225 78.6980447"></polygon>
                <polygon id="Fill-76" points="83.6984804 81.161798 86.1203037 81.161798 86.1203037 78.7500367 83.6984804 78.7500367"></polygon>
                <polygon id="Fill-77" points="86.0412031 76.2812519 88.4613434 76.2812519 88.4613434 73.8694906 86.0412031 73.8694906"></polygon>
                <polygon id="Fill-78" points="71.4076013 71.3755483 73.8277415 71.3755483 73.8277415 68.9621098 71.4076013 68.9621098"></polygon>
                <polygon id="Fill-79" points="65.3789904 73.7688608 68.8713347 73.7688608 68.8713347 71.3570995 65.3789904 71.3570995"></polygon>
                <polygon id="Fill-80" points="68.9302394 78.6946903 71.3503796 78.6946903 71.3503796 76.282929 68.9302394 76.282929"></polygon>
                <polygon id="Fill-81" points="56.6343112 78.6946903 59.0561345 78.6946903 59.0561345 76.282929 56.6343112 76.282929"></polygon>
                <polygon id="Fill-82" points="63.9906624 90.8943785 66.4124857 90.8943785 66.4124857 86.0255725 63.9906624 86.0255725"></polygon>
                <polygon id="Fill-83" points="59.0561345 94.1894942 61.4762747 94.1894942 61.4762747 90.1971893 59.0561345 90.1971893"></polygon>
                <polygon id="Fill-84" points="68.9302394 83.6121341 71.3503796 83.6121341 71.3503796 81.2003728 68.9302394 81.2003728"></polygon>
                <polygon id="Fill-85" points="54.8324613 86.0540843 61.4476639 86.0540843 61.4476639 83.642323 54.8324613 83.642323"></polygon>
                <polygon id="Fill-86" points="56.6494581 90.8943785 66.4124857 90.8943785 66.4124857 88.4809401 56.6494581 88.4809401"></polygon>
                <polygon id="Fill-87" points="73.8294245 86.0255725 76.2512478 86.0255725 76.2512478 83.6121341 73.8294245 83.6121341"></polygon>
                <polygon id="Fill-88" points="81.2766572 89.7195254 83.6967975 89.7195254 83.6967975 86.0691788 81.2766572 86.0691788"></polygon>
                <polygon id="Fill-89" points="86.1203037 88.439011 88.5404439 88.439011 88.5404439 86.0272497 86.1203037 86.0272497"></polygon>
                <polygon id="Fill-90" points="88.4596604 86.0255725 93.1313361 86.0255725 93.1313361 76.2812519 88.4596604 76.2812519"></polygon>
                <polygon id="Fill-91" points="83.6984804 94.5447251 86.1203037 94.5447251 86.1203037 90.8943785 83.6984804 90.8943785"></polygon>
                <polygon id="Fill-92" points="68.9302394 88.439011 71.3503796 88.439011 71.3503796 86.0272497 68.9302394 86.0272497"></polygon>
                <polygon id="Fill-93" points="66.4495114 93.492305 73.064714 93.492305 73.064714 90.8943785 66.4495114 90.8943785"></polygon>
                <polygon id="Fill-94" points="76.2647117 90.8943785 83.6967975 90.8943785 83.6967975 88.4809401 76.2647117 88.4809401"></polygon>
                <polygon id="Fill-95" points="71.3503796 93.492305 73.7705198 93.492305 73.7705198 88.4373338 71.3503796 88.4373338"></polygon>
                <polygon id="Fill-96" points="41.8610212 61.5255664 44.2828444 61.5255664 44.2828444 59.1138051 41.8610212 59.1138051"></polygon>
                <polygon id="Fill-97" points="51.8226416 64.0463433 59.0477195 64.0463433 59.0477195 61.634582 51.8226416 61.634582"></polygon>
                <polygon id="Fill-98" points="68.9184584 41.8775945 78 41.8775945 78 39.4641561 68.9184584 39.4641561"></polygon>
                <polygon id="Fill-99" points="63.9536366 44.291033 73.750324 44.291033 73.750324 41.8792717 63.9536366 41.8792717"></polygon>
                <polygon id="Fill-100" points="41.8610212 71.3789026 44.2828444 71.3789026 44.2828444 68.9671413 41.8610212 68.9671413"></polygon>
                <polygon id="Fill-101" points="50.4988056 71.3202019 55.3192182 71.3202019 55.3192182 68.9084406 50.4988056 68.9084406"></polygon>
                <polygon id="Fill-102" points="44.5 76.2812519 55.5692182 76.2812519 55.5692182 73.8694906 44.5 73.8694906"></polygon>
                <polygon id="Fill-103" points="35.887949 80.9706014 39.3802932 80.9706014 39.3802932 78.5571629 35.887949 78.5571629"></polygon>
                <polygon id="Fill-104" points="36.95847 94.6302605 39.417319 94.6302605 39.417319 90.9799139 36.95847 90.9799139"></polygon>
                <polygon id="Fill-105" points="46.7416934 94.5749141 53.9953822 94.5749141 53.9953822 90.9245675 46.7416934 90.9245675"></polygon>
                <polygon id="Fill-106" points="28.3988247 90.9648194 33.0336923 90.9648194 33.0336923 88.5513809 28.3988247 88.5513809"></polygon>
                <polygon id="Fill-107" points="25.6723361 81.161798 29.5095543 81.161798 29.5095543 78.7500367 25.6723361 78.7500367"></polygon>
                <polygon id="Fill-108" points="35.6726653 88.511129 39.417319 88.511129 39.417319 86.0993677 35.6726653 86.0993677"></polygon>
                <polygon id="Fill-109" points="39.417319 90.9245675 46.7248635 90.9245675 46.7248635 88.511129 39.417319 88.511129"></polygon>
                <polygon id="Fill-110" points="29.5247012 76.1923622 34.4255694 76.1923622 34.4255694 73.7789238 29.5247012 73.7789238"></polygon>
                <polygon id="Fill-111" points="29.5146033 86.0926591 36.7396813 86.0926591 36.7396813 81.1986956 29.5146033 81.1986956"></polygon>
                <polygon id="Fill-112" points="19.7448438 64.0597606 22.2508166 64.0597606 22.2508166 61.6463221 19.7448438 61.6463221"></polygon>
                <polygon id="Fill-113" points="19.7448438 71.373316 22.2508166 71.373316 22.2508166 63.9583834 19.7448438 63.9583834"></polygon>
                <polygon id="Fill-114" points="9.01536366 63.9986009 12.3969076 63.9986009 12.3969076 61.5851624 9.01536366 61.5851624"></polygon>
                <polygon id="Fill-115" points="12.317807 61.5876214 14.8237798 61.5876214 14.8237798 59.174183 12.317807 59.174183"></polygon>
                <polygon id="Fill-116" points="15.0714851 61.5876214 19.7431608 61.5876214 19.7431608 59.174183 15.0714851 59.174183"></polygon>
                <polygon id="Fill-117" points="14.7480452 74.839147 17.254018 74.839147 17.254018 68.9304995 14.7480452 68.9304995"></polygon>
                <polygon id="Fill-118" points="19.7313799 73.720223 24.647395 73.720223 24.647395 71.2756434 19.7313799 71.2756434"></polygon>
                <polygon id="Fill-119" points="17.2859948 66.4430101 22.2525481 66.4430101 22.2525481 64.0312488 17.2859948 64.0312488"></polygon>
                <polygon id="Fill-120" points="16.5240555 56.703728 22.1414222 56.703728 22.1414222 54.2533849 16.5240555 54.2533849"></polygon>
                <polygon id="Fill-121" points="19.7313799 59.1138051 24.647395 59.1138051 24.647395 56.7003666 19.7313799 56.7003666"></polygon>
                <polygon id="Fill-122" points="9.49831701 76.0833466 22.2457676 76.0833466 22.2457676 73.6699081 9.49831701 73.6699081"></polygon>
                <polygon id="Fill-123" points="2.38479745 56.7422957 7.39842596 56.7422957 7.39842596 54.3288573 2.38479745 54.3288573"></polygon>
                <polygon id="Fill-124" points="14.778339 71.3017531 22.2500019 71.3017531 22.2500019 68.8899918 14.778339 68.8899918"></polygon>
                <polygon id="Fill-125" points="1.58401043 76.0833466 8.19921298 76.0833466 8.19921298 73.6699081 1.58401043 73.6699081"></polygon>
                <polygon id="Fill-126" points="14.7362643 51.7477024 19.7482098 51.7477024 19.7482098 49.3359412 14.7362643 49.3359412"></polygon>
                <polygon id="Fill-127" points="44.2188908 24.8711554 46.7248635 24.8711554 46.7248635 22.4593941 44.2188908 22.4593941"></polygon>
                <polygon id="Fill-128" points="60.8713921 12.6144437 64.7924549 12.6144437 64.7924549 10.2026824 60.8713921 10.2026824"></polygon>
                <polygon id="Fill-129" points="61.7778358 5.24666391 66.4495114 5.24666391 66.4495114 2.76110742 61.7778358 2.76110742"></polygon>
                <polygon id="Fill-130" points="55.0395932 17.4530607 60.7922237 17.4530607 60.7922237 15.0201492 55.0395932 15.0201492"></polygon>
                <polygon id="Fill-131" points="55.6765506 22.2579231 59.1688948 22.2579231 59.1688948 19.8899795 55.6765506 19.8899795"></polygon>
                <polygon id="Fill-132" points="37.1183541 14.9876302 41.8441912 14.9876302 41.8441912 10.1423045 37.1183541 10.1423045"></polygon>
                <polygon id="Fill-133" points="34.6140643 10.1221786 37.1200371 10.1221786 37.1200371 2.707246 34.6140643 2.707246"></polygon>
                <polygon id="Fill-134" points="32.1165065 5.22821511 49.2190553 5.22821511 49.2190553 1.57786849 32.1165065 1.57786849"></polygon>
                <polygon id="Fill-135" points="1.25382788 2.81477666 95.9691637 2.81477666 95.9691637 0.401338207 1.25382788 0.401338207"></polygon>
                <polygon id="Fill-136" points="2.5160707 95.9057434 93.463191 95.9057434 93.463191 93.492305 2.5160707 93.492305"></polygon>
                <polygon id="Fill-137" points="17.245603 37.1278672 19.7397948 37.1278672 19.7397948 34.6423107 17.245603 34.6423107"></polygon>
                <polygon id="Fill-138" points="24.2684567 44.5157729 32.2547772 44.5157729 32.2547772 42.0302164 24.2684567 42.0302164"></polygon>
                <polygon id="Fill-139" points="34.5837705 46.8721878 37.0779623 46.8721878 37.0779623 44.3866313 34.5837705 44.3866313"></polygon>
                <polygon id="Fill-140" points="27.0742672 39.6151008 36.1558088 39.6151008 36.1558088 37.1278672 27.0742672 37.1278672"></polygon>
                <polygon id="Fill-141" points="29.7283431 39.5228568 37.1604289 39.5228568 37.1604289 37.0373003 29.7283431 37.0373003"></polygon>
                <polygon id="Fill-142" points="31.9229626 44.5157729 37.0779623 44.5157729 37.0779623 42.0302164 31.9229626 42.0302164"></polygon>
                <polygon id="Fill-143" points="12.322856 40.687647 14.8170478 40.687647 14.8170478 37.0373003 12.322856 37.0373003"></polygon>
                <polygon id="Fill-144" points="9.89598377 27.2627908 14.7934859 27.2627908 14.7934859 24.9097302 9.89598377 24.9097302"></polygon>
                <polygon id="Fill-145" points="12.3447349 29.7483472 17.24392 29.7483472 17.24392 27.2627908 12.3447349 27.2627908"></polygon>
                <polygon id="Fill-146" points="17.24392 27.3282001 22.1414222 27.3282001 22.1414222 24.8426436 17.24392 24.8426436"></polygon>
                <polygon id="Fill-147" points="44.1549371 34.5886414 49.2190553 34.5886414 49.2190553 32.103085 44.1549371 32.103085"></polygon>
                <polygon id="Fill-148" points="76.2209539 22.4442997 94.7969609 22.4442997 94.7969609 19.957066 76.2209539 19.957066"></polygon>
                <polygon id="Fill-149" points="46.6878377 37.0775523 51.751956 37.0775523 51.751956 34.5903186 46.6878377 34.5903186"></polygon>
                <polygon id="Fill-150" points="71.454725 34.6305705 76.2579797 34.6305705 76.2579797 32.093022 71.454725 32.093022"></polygon>
                <polygon id="Fill-151" points="81.2581443 25.0117309 88.4832223 25.0117309 88.4832223 21.2593836 81.2581443 21.2593836"></polygon>
                <polygon id="Fill-152" points="84.8798145 27.3969638 93.9613561 27.3969638 93.9613561 24.9097302 84.8798145 24.9097302"></polygon>
                <polygon id="Fill-153" points="86.1203037 34.6054131 90.9134604 34.6054131 90.9134604 32.1181794 86.1203037 32.1181794"></polygon>
                <polygon id="Fill-154" points="76.2502521 59.1507027 88.521931 59.1507027 88.521931 56.6651462 76.2502521 56.6651462"></polygon>
                <polygon id="Fill-155" points="58.9703019 81.1986956 66.4478285 81.1986956 66.4478285 78.711462 58.9703019 78.711462"></polygon>
                <polygon id="Fill-156" points="71.3419646 66.4849392 76.3067864 66.4849392 76.3067864 63.9993827 71.3419646 63.9993827"></polygon>
                <polygon id="Fill-157" points="81.0746983 71.3755483 86.1203037 71.3755483 86.1203037 68.9252122 81.0746983 68.9252122"></polygon>
                <polygon id="Fill-158" points="88.5640058 39.4624789 94.783497 39.4624789 94.783497 34.5936729 88.5640058 34.5936729"></polygon>
                <polygon id="Fill-159" points="88.5640058 49.2638231 93.5776343 49.2638231 93.5776343 41.8708859 88.5640058 41.8708859"></polygon>
                <polygon id="Fill-160" points="12.3666137 22.427528 19.8172124 22.427528 19.8172124 19.9419715 12.3666137 19.9419715"></polygon>
                <polygon id="Fill-161" points="7.40010895 42.0188176 9.89598377 42.0188176 9.89598377 34.6423107 7.40010895 34.6423107"></polygon>
                <polygon id="Fill-162" points="9.89598377 34.7244917 12.3901756 34.7244917 12.3901756 31.0741451 9.89598377 31.0741451"></polygon>
                <polygon id="Fill-163" points="1.90966329 39.5228568 9.89598377 39.5228568 9.89598377 37.0373003 1.90966329 37.0373003"></polygon>
                <polygon id="Fill-164" points="7.44891568 42.0201534 19.6926711 42.0201534 19.6926711 39.5329198 7.44891568 39.5329198"></polygon>
                <polygon id="Fill-165" points="6.80716546 32.237258 14.7934859 32.237258 14.7934859 29.7500244 6.80716546 29.7500244"></polygon>
                <polygon id="Fill-166" points="9.89598377 26.622206 12.3901756 26.622206 12.3901756 19.9587432 9.89598377 19.9587432"></polygon>
                <polygon id="Fill-167" points="21.1516847 15.0664569 24.644029 15.0664569 24.644029 7.6718425 21.1516847 7.6718425"></polygon>
                <polygon id="Fill-168" points="32.1165065 17.4782182 34.6123813 17.4782182 34.6123813 7.71041726 32.1165065 7.71041726"></polygon>
                <polygon id="Fill-169" points="44.3821408 12.5641288 46.8780156 12.5641288 46.8780156 4.5 44.3821408 4.5"></polygon>
                <polygon id="Fill-170" points="49.2207383 22.3252211 51.7166132 22.3252211 51.7166132 17.4547379 49.2207383 17.4547379"></polygon>
                <polygon id="Fill-171" points="46.7248635 36.5 49.2190553 36.5 49.2190553 27.2460191 46.7248635 27.2460191"></polygon>
                <polygon id="Fill-172" points="39.3685123 27.244342 41.8643871 27.244342 41.8643871 22.3738588 39.3685123 22.3738588"></polygon>
                <polygon id="Fill-173" points="32.0054292 32.185266 34.501304 32.185266 34.501304 27.31646 32.0054292 27.31646"></polygon>
                <polygon id="Fill-174" points="41.7953845 34.5886414 44.2912593 34.5886414 44.2912593 29.7198355 41.7953845 29.7198355"></polygon>
                <polygon id="Fill-175" points="37.0039108 37.0658121 39.4981026 37.0658121 39.4981026 29.7818905 37.0039108 29.7818905"></polygon>
                <polygon id="Fill-176" points="34.5602086 37.0658121 39.2318843 37.0658121 39.2318843 32.1970061 34.5602086 32.1970061"></polygon>
                <polygon id="Fill-177" points="24.63898 37.1278672 27.1331718 37.1278672 27.1331718 29.7198355 24.63898 29.7198355"></polygon>
                <polygon id="Fill-178" points="19.6943541 49.334264 22.1885459 49.334264 22.1885459 41.9245551 19.6943541 41.9245551"></polygon>
                <polygon id="Fill-179" points="12.324539 56.7422957 14.8187308 56.7422957 14.8187308 49.334264 12.324539 49.334264"></polygon>
                <polygon id="Fill-180" points="7.40010895 76.0833466 9.89598377 76.0833466 9.89598377 61.5859442 7.40010895 61.5859442"></polygon>
                <polygon id="Fill-181" points="19.7498928 93.492305 22.2457676 93.492305 22.2457676 74.985643 19.7498928 74.985643"></polygon>
                <polygon id="Fill-182" points="14.7530942 63.8752726 17.247286 63.8752726 17.247286 54.2395184 14.7530942 54.2395184"></polygon>
                <polygon id="Fill-183" points="21.1466358 93.492305 24.63898 93.492305 24.63898 83.5769136 21.1466358 83.5769136"></polygon>
                <polygon id="Fill-184" points="24.63898 83.5769136 27.1331718 83.5769136 27.1331718 73.9030339 24.63898 73.9030339"></polygon>
                <polygon id="Fill-185" points="27.0136795 93.492305 29.5095543 93.492305 29.5095543 86.0926591 27.0136795 86.0926591"></polygon>
                <polygon id="Fill-186" points="24.63898 71.2648555 27.1331718 71.2648555 27.1331718 59.2228207 24.63898 59.2228207"></polygon>
                <polygon id="Fill-187" points="1.83401043 71.2648555 7.94752999 71.2648555 7.94752999 66.5100966 1.83401043 66.5100966"></polygon>
                <polygon id="Fill-188" points="1.16765975 49.334264 5.00353057 49.334264 5.00353057 41.9245551 1.16765975 41.9245551"></polygon>
                <polygon id="Fill-189" points="22.1431052 46.9778491 24.63898 46.9778491 24.63898 39.5698174 22.1431052 39.5698174"></polygon>
                <polygon id="Fill-190" points="22.1431052 54.2449991 24.63898 54.2449991 24.63898 49.334264 22.1431052 49.334264"></polygon>
                <polygon id="Fill-191" points="24.6019542 56.7003666 27.097829 56.7003666 27.097829 51.7896315 24.6019542 51.7896315"></polygon>
                <polygon id="Fill-192" points="8.89783135 76.0881862 12.3901756 76.0881862 12.3901756 71.2648555 8.89783135 71.2648555"></polygon>
                <polygon id="Fill-193" points="34.5837705 54.20307 37.0779623 54.20307 37.0779623 49.2923349 34.5837705 49.2923349"></polygon>
                <polygon id="Fill-194" points="29.5112373 44.5157729 32.0054292 44.5157729 32.0054292 32.2238407 29.5112373 32.2238407"></polygon>
                <polygon id="Fill-195" points="51.6728554 29.6779064 54.1670472 29.6779064 54.1670472 24.8091004 51.6728554 24.8091004"></polygon>
                <polygon id="Fill-196" points="76.2579797 32.093022 78.7521715 32.093022 78.7521715 27.224216 76.2579797 27.224216"></polygon>
                <polygon id="Fill-197" points="76.2579797 41.8792717 78.7521715 41.8792717 78.7521715 34.6087674 76.2579797 34.6087674"></polygon>
                <polygon id="Fill-198" points="81.1235051 44.3061275 83.6193799 44.3061275 83.6193799 36.9802768 81.1235051 36.9802768"></polygon>
                <polygon id="Fill-199" points="88.5640058 54.1913298 91.0598806 54.1913298 91.0598806 46.9208255 88.5640058 46.9208255"></polygon>
                <polygon id="Fill-200" points="81.1235051 64.0211858 83.6193799 64.0211858 83.6193799 56.6651462 81.1235051 56.6651462"></polygon>
                <polygon id="Fill-201" points="78.6259473 71.3789026 81.1218221 71.3789026 81.1218221 64.0211858 78.6259473 64.0211858"></polygon>
                <polygon id="Fill-202" points="73.8294245 81.1098059 76.3252993 81.1098059 76.3252993 73.8694906 73.8294245 73.8694906"></polygon>
                <polygon id="Fill-203" points="78.6259473 81.1098059 81.1218221 81.1098059 81.1218221 73.8694906 78.6259473 73.8694906"></polygon>
                <polygon id="Fill-204" points="90.9673161 68.9252122 94.4596604 68.9252122 94.4596604 64.0211858 90.9673161 64.0211858"></polygon>
                <polygon id="Fill-205" points="86.1203037 68.9252122 88.6144955 68.9252122 88.6144955 64.0211858 86.1203037 64.0211858"></polygon>
                <polygon id="Fill-206" points="88.5640058 71.3755483 91.0598806 71.3755483 91.0598806 66.473199 88.5640058 66.473199"></polygon>
                <polygon id="Fill-207" points="66.4545604 64.0211858 68.9504352 64.0211858 68.9504352 56.6651462 66.4545604 56.6651462"></polygon>
                <polygon id="Fill-208" points="58.956838 71.3789026 61.4527128 71.3789026 61.4527128 64.0211858 58.956838 64.0211858"></polygon>
                <polygon id="Fill-209" points="54.1384364 66.5318998 56.6326282 66.5318998 56.6326282 59.174183 54.1384364 59.174183"></polygon>
                <polygon id="Fill-210" points="34.4255694 66.4430101 36.9214442 66.4430101 36.9214442 56.7070753 34.4255694 56.7070753"></polygon>
                <polygon id="Fill-211" points="29.5819229 61.5255664 35.1992896 61.5255664 35.1992896 56.7087524 29.5819229 56.7087524"></polygon>
                <polygon id="Fill-212" points="36.2370604 66.4430101 39.417319 66.4430101 39.417319 61.5876214 36.2370604 61.5876214"></polygon>
                <polygon id="Fill-213" points="36.9231272 76.1303072 40.4154715 76.1303072 40.4154715 71.3789026 36.9231272 71.3789026"></polygon>
                <polygon id="Fill-214" points="46.7248635 68.9235351 49.2190553 68.9235351 49.2190553 61.5658183 46.7248635 61.5658183"></polygon>
                <polygon id="Fill-214" points="44.7712269 68.9235351 49.2190553 68.9235351 49.2190553 63.9960284 44.7712269 63.9960284"></polygon>
                <polygon id="Fill-215" points="44.2289887 71.3789026 46.7248635 71.3789026 46.7248635 64.0211858 44.2289887 64.0211858"></polygon>
                <polygon id="Fill-216" points="54.1384364 76.2644802 56.6326282 76.2644802 56.6326282 68.9067634 54.1384364 68.9067634"></polygon>
                <polygon id="Fill-217" points="49.1837125 76.2644802 51.6795874 76.2644802 51.6795874 68.9067634 49.1837125 68.9067634"></polygon>
                <polygon id="Fill-218" points="46.7248635 76.2644802 50.2172078 76.2644802 50.2172078 71.3789026 46.7248635 71.3789026"></polygon>
                <polygon id="Fill-219" points="44.2289887 78.7533911 46.7248635 78.7533911 46.7248635 73.8678134 44.2289887 73.8678134"></polygon>
                <polygon id="Fill-220" points="32.0777977 94.4466111 34.5719896 94.4466111 34.5719896 88.5379636 32.0777977 88.5379636"></polygon>
                <polygon id="Fill-221" points="46.7248635 83.5517562 54.1384364 83.5517562 54.1384364 78.6678557 46.7248635 78.6678557"></polygon>
                <polygon id="Fill-222" points="41.7903356 86.0876276 49.631388 86.0876276 49.631388 81.2037271 41.7903356 81.2037271"></polygon>
                <polygon id="Fill-223" points="49.1837125 88.511129 51.6795874 88.511129 51.6795874 82.6024816 49.1837125 82.6024816"></polygon>
                <polygon id="Fill-224" points="54.1384364 88.4809401 56.6326282 88.4809401 56.6326282 81.1081288 54.1384364 81.1081288"></polygon>
                <polygon id="Fill-225" points="41.8239954 90.8943785 44.3181872 90.8943785 44.3181872 84.9857311 41.8239954 84.9857311"></polygon>
                <polygon id="Fill-226" points="39.4105871 78.5554858 41.9047789 78.5554858 41.9047789 71.3789026 39.4105871 71.3789026"></polygon>
                <polygon id="Fill-227" points="34.4255694 90.8943785 36.9214442 90.8943785 36.9214442 78.5554858 34.4255694 78.5554858"></polygon>
                <polygon id="Fill-228" points="29.5819229 71.1977689 32.0777977 71.1977689 32.0777977 63.8400521 29.5819229 63.8400521"></polygon>
                <polygon id="Fill-228" points="29.5819229 68.7675589 33.4191411 68.7675589 33.4191411 63.8400521 29.5819229 63.8400521"></polygon>
                <polygon id="Fill-229" points="32.0828467 68.8648344 34.5787215 68.8648344 34.5787215 56.7003666 32.0828467 56.7003666"></polygon>
                <polygon id="Fill-230" points="63.9536366 83.5081499 66.4478285 83.5081499 66.4478285 66.4614589 63.9536366 66.4614589"></polygon>
                <polygon id="Fill-231" points="91.0615636 90.8943785 94.5539079 90.8943785 94.5539079 71.4308947 91.0615636 71.4308947"></polygon>
                <polygon id="Fill-232" points="61.4527128 61.5255664 63.9485877 61.5255664 63.9485877 51.814789 61.4527128 51.814789"></polygon>
                <polygon id="Fill-233" points="78.6259473 59.0701988 81.1218221 59.0701988 81.1218221 51.7996945 78.6259473 51.7996945"></polygon>
                <polygon id="Fill-234" points="76.2579797 51.7040962 78.7521715 51.7040962 78.7521715 44.4335919 76.2579797 44.4335919"></polygon>
                <polygon id="Fill-235" points="83.6244289 54.0839914 86.1203037 54.0839914 86.1203037 44.2977416 83.6244289 44.2977416"></polygon>
                <polygon id="Fill-236" points="78.7521715 49.2638231 81.2480464 49.2638231 81.2480464 41.8708859 78.7521715 41.8708859"></polygon>
                <polygon id="Fill-236" points="76.8002179 49.2638231 81.2480464 49.2638231 81.2480464 44.4327046 76.8002179 44.4327046"></polygon>
                <polygon id="Fill-237" points="78.7589035 36.9970484 81.2530953 36.9970484 81.2530953 29.7265441 78.7589035 29.7265441"></polygon>
                <polygon id="Fill-237" points="76.5272582 37.0960261 81.2530953 36.9970484 81.2530953 34.6104697 76.5272582 34.6104697"></polygon>
                <polygon id="Fill-238" points="83.6244289 32.1399826 86.1203037 32.1399826 86.1203037 24.815809 83.6244289 24.815809"></polygon>
                <polygon id="Fill-239" points="63.9485877 37.0356232 66.4444625 37.0356232 66.4444625 29.7600874 63.9485877 29.7600874"></polygon>
                <polygon id="Fill-240" points="61.4527128 41.8809489 63.9485877 41.8809489 63.9485877 37.0926467 61.4527128 37.0926467"></polygon>
                <polygon id="Fill-241" points="59.0847453 46.7782666 61.5789371 46.7782666 61.5789371 37.1091778 59.0847453 37.1091778"></polygon>
                <polygon id="Fill-242" points="54.1670472 34.5886414 58.9248612 34.5886414 58.9248612 29.7198355 54.1670472 29.7198355"></polygon>
                <polygon id="Fill-243" points="59.0847453 19.8899795 61.5789371 19.8899795 61.5789371 15.0211735 59.0847453 15.0211735"></polygon>
                <polygon id="Fill-244" points="54.0694338 12.5741918 56.5636256 12.5741918 56.5636256 7.70538577 54.0694338 7.70538577"></polygon>
                <polygon id="Fill-245" points="61.4543958 7.72383457 63.9485877 7.72383457 63.9485877 1.81518714 61.4543958 1.81518714"></polygon>
                <polygon id="Fill-246" points="68.8444068 10.0970211 71.3402817 10.0970211 71.3402817 5.20808914 68.8444068 5.20808914"></polygon>
                <polygon id="Fill-247" points="65.449676 24.7470453 68.9420203 24.7470453 68.9420203 19.8581134 65.449676 19.8581134"></polygon>
                <polygon id="Fill-248" points="68.8444068 22.3252211 71.3402817 22.3252211 71.3402817 15.0849057 68.8444068 15.0849057"></polygon>
                <polygon id="Fill-249" points="63.9637346 24.7532292 66.4579264 24.7532292 66.4579264 17.568785 63.9637346 17.568785"></polygon>
                <polygon id="Fill-250" points="49.2207383 10.1389502 51.7166132 10.1389502 51.7166132 5.2701442 49.2207383 5.2701442"></polygon>
                <polygon id="Fill-251" points="54.1670472 22.24304 56.6629221 22.24304 56.6629221 15.0194963 54.1670472 15.0194963"></polygon>
                <polygon id="Fill-252" points="63.9485877 15.0194963 66.4444625 15.0194963 66.4444625 7.79595261 63.9485877 7.79595261"></polygon>
                <polygon id="Fill-253" points="59.0847453 12.5641288 61.5789371 12.5641288 61.5789371 1.81518714 59.0847453 1.81518714"></polygon>
                <polygon id="Fill-254" points="73.7621049 24.7386595 76.2579797 24.7386595 76.2579797 1.81518714 73.7621049 1.81518714"></polygon>
                <polygon id="Fill-255" points="46.7248635 17.4530607 49.2190553 17.4530607 49.2190553 7.70538577 46.7248635 7.70538577"></polygon>
                <polygon id="Fill-256" points="29.6223147 22.4593941 32.1165065 22.4593941 32.1165065 15.0664569 29.6223147 15.0664569"></polygon>
                <polygon id="Fill-257" points="6.22077751 24.9097302 10.8924532 24.9097302 10.8924532 19.9587432 6.22077751 19.9587432"></polygon>
                <polygon id="Fill-258" points="2.00942104 24.9097302 5.50176529 24.9097302 5.50176529 19.9587432 2.00942104 19.9587432"></polygon>
                <polygon id="Fill-259" points="22.1431052 32.2255179 24.63898 32.2255179 24.63898 27.2745309 22.1431052 27.2745309"></polygon>
                <polygon id="Fill-260" points="34.6123813 22.4157879 37.0022278 22.4157879 37.0022278 17.4648009 34.6123813 17.4648009"></polygon>
                <polygon id="Fill-261" points="19.6943541 34.5601297 22.1885459 34.5601297 22.1885459 29.7500244 19.6943541 29.7500244"></polygon>
                <polygon id="Fill-262" points="7.40010895 49.24202 9.89598377 49.24202 9.89598377 44.4319147 7.40010895 44.4319147"></polygon>
                <polygon id="Fill-263" points="1.68708511 39.450987 5.00353057 39.5111167 5.00353057 34.5601297 1.68708511 34.5"></polygon>
                <polygon id="Fill-264" points="19.6943541 22.427528 22.1885459 22.427528 22.1885459 1.60638027 19.6943541 1.60638027"></polygon>
                <polygon id="Fill-265" points="24.63898 27.3349088 27.1331718 27.3349088 27.1331718 15.0664569 24.63898 15.0664569"></polygon>
                <polygon id="Fill-266" points="5.00353057 34.6607595 7.4977224 34.6607595 7.4977224 19.957066 5.00353057 19.957066"></polygon>
                <g id="Group-275" transform="translate(35.746161, 35.929527)">
                    <path d="M20.9561435,7.61533618 L20.9527775,7.61365902 L18.933189,5.75703889 L18.924774,5.74865307 C18.8776503,5.70336965 18.8153797,5.67653504 18.7463771,5.67653504 C18.6033229,5.67653504 18.4855135,5.79225933 18.4855135,5.93481823 L18.4855135,16.1219101 L18.4855135,18.8020175 C18.4855135,18.9445764 18.6033229,19.0603007 18.7463771,19.0603007 C18.8170626,19.0603007 18.8810163,19.0334661 18.92814,18.9865055 L18.933189,18.981474 L20.9510945,16.9705549 L20.9578265,16.9638462 C21.0756358,16.8447676 21.1496874,16.6787284 21.1496874,16.4992719 L21.1496874,8.08326483 C21.1496874,7.90213116 21.0739528,7.73609196 20.9561435,7.61533618" id="Fill-267"></path>
                    <path d="M15.8891642,5.28793623 L5.03892483,5.28793623 C4.89418766,5.28961339 4.77469533,5.40701484 4.77469533,5.55125091 C4.77469533,5.62336895 4.80498916,5.69045549 4.85211289,5.73909324 L12.6965313,12.9508968 L12.7032633,12.9592826 C12.75207,13.004566 12.8143407,13.0314007 12.8850263,13.0314007 C13.0314464,13.0314007 13.1492558,12.9139992 13.1492558,12.768086 L13.1492558,8.93912143 L13.1492558,8.92905845 C13.1509387,8.74792477 13.2249903,8.58188558 13.3427997,8.46280696 L13.3495316,8.4560983 L16.0742931,5.7407704 L16.0759761,5.73741608 C16.1247828,5.68877833 16.1533937,5.62336895 16.1533937,5.55125091 C16.1533937,5.40533768 16.0355844,5.28793623 15.8891642,5.28793623" id="Fill-269"></path>
                    <path d="M14.6893603,18.9984134 L6.84662486,11.7849327 L6.83820991,11.7765468 C6.79108618,11.7329406 6.72881553,11.7044288 6.65812993,11.7044288 C6.51170977,11.7044288 6.39221744,11.8235074 6.39221744,11.9694207 L6.39221744,15.7983852 L6.39221744,15.8084482 C6.39053445,15.9895819 6.31648287,16.1556211 6.19699055,16.2746997 L6.19194158,16.2814083 L3.46718006,18.9967362 L3.46381408,19.0000906 C3.41837334,19.0470511 3.38807951,19.1124605 3.38807951,19.1845786 C3.38807951,19.3304918 3.50588884,19.4495704 3.65230901,19.4495704 L14.5042314,19.4495704 C14.6489685,19.4478932 14.7667779,19.3288146 14.7667779,19.1845786 C14.7667779,19.1124605 14.736484,19.045374 14.6893603,18.9984134" id="Fill-271"></path>
                    <path d="M23.0188166,20.11205 C23.0188166,21.6298831 21.7835016,22.8609212 20.2587123,22.8609212 L4.7280765,22.8609212 C2.95588757,22.8609212 1.51861374,21.4286235 1.51861374,19.660893 L1.51861374,4.22427906 C1.51861374,2.68464285 2.77244161,1.43515596 4.31910982,1.43515596 L19.9002353,1.43515596 C21.6236175,1.43515596 23.0188166,2.8255246 23.0188166,4.54294015 L23.0188166,20.11205 Z M20.4051324,0.160511605 L4.20298348,0.160511605 C2.01509591,0.160511605 0.239541003,1.92824206 0.239541003,4.11023193 L0.239541003,20.1388847 C0.239541003,22.346032 2.0352918,24.1355656 4.25179021,24.1355656 L20.2738592,24.1355656 C22.4954065,24.1355656 24.2978893,22.3393233 24.2978893,20.1254673 L24.2978893,4.03979106 C24.2978893,1.89805312 22.5559942,0.160511605 20.4051324,0.160511605 L20.4051324,0.160511605 Z" id="Fill-273"></path>
                </g>
            </g>
        </g>
    </g>
</svg>