<?xml version="1.0" encoding="UTF-8"?>
<svg width="192px" height="192px" viewBox="0 0 192 192" version="1.1" xmlns="http://www.w3.org/2000/svg" xmlns:xlink="http://www.w3.org/1999/xlink">
    <!-- Generator: Sketch 43 (38999) - http://www.bohemiancoding.com/sketch -->
    <title>qrcode</title>
    <desc>Created with Sketch.</desc>
    <defs></defs>
    <g id="icon" stroke="none" stroke-width="1" fill="none" fill-rule="evenodd">
        <g id="qrcode" fill="#E0CAAA">
            <g id="Page-1">
                <path d="M14.8810014,30.196646 L29.6913173,30.196646 L29.6913173,15.4376062 L14.8810014,15.4376062 L14.8810014,30.196646 Z M10.0070611,35.0537119 L34.5719896,35.0537119 L34.5719896,10.5738317 L10.0070611,10.5738317 L10.0070611,35.0537119 Z" id="Fill-1"></path>
                <path d="M14.8810014,177.102762 L29.6913173,177.102762 L29.6913173,162.343722 L14.8810014,162.343722 L14.8810014,177.102762 Z M10.0070611,181.959828 L34.5719896,181.959828 L34.5719896,157.479948 L10.0070611,157.479948 L10.0070611,181.959828 Z" id="Fill-2"></path>
                <path d="M162.236912,30.196646 L177.047228,30.196646 L177.047228,15.4376062 L162.236912,15.4376062 L162.236912,30.196646 Z M157.35624,35.0537119 L181.921168,35.0537119 L181.921168,10.5738317 L157.35624,10.5738317 L157.35624,35.0537119 Z" id="Fill-3"></path>
                <polygon id="Fill-4" points="4.01884207 59.4966945 11.0035306 59.4966945 11.0035306 54.5255815 4.01884207 54.5255815"></polygon>
                <polygon id="Fill-5" points="34.491206 64.4745161 52.6542892 64.4745161 52.6542892 59.5000488 34.491206 59.5000488"></polygon>
                <polygon id="Fill-6" points="29.4960904 69.4221488 34.48784 69.4221488 34.48784 64.4510358 29.4960904 64.4510358"></polygon>
                <polygon id="Fill-7" points="44.2862104 49.6852873 51.9606468 49.6852873 51.9606468 44.8584104 44.2862104 44.8584104"></polygon>
                <polygon id="Fill-8" points="52.6325772 34.9564364 67.4967488 34.9564364 67.4967488 30.1329138 52.6325772 30.1329138"></polygon>
                <polygon id="Fill-9" points="46.6020052 25.1483835 54.2764416 25.1483835 54.2764416 20.324861 46.6020052 20.324861"></polygon>
                <polygon id="Fill-10" points="49.2644961 15.3403307 54.2764416 15.3403307 54.2764416 10.5168081 49.2644961 10.5168081"></polygon>
                <polygon id="Fill-11" points="0 191.811487 5.0153115 191.811487 5.0153115 0.802676415 0 0.802676415"></polygon>
                <polygon id="Fill-12" points="186.926382 191.811487 191.938327 191.811487 191.938327 0.802676415 186.926382 0.802676415"></polygon>
                <polygon id="Fill-13" points="42.3134674 10.4564302 49.2981559 10.4564302 49.2981559 3.15573697 42.3134674 3.15573697"></polygon>
                <polygon id="Fill-14" points="54.2663437 20.2443571 59.2782892 20.2443571 59.2782892 15.4208345 54.2663437 15.4208345"></polygon>
                <polygon id="Fill-15" points="59.2311655 15.3403307 64.243111 15.3403307 64.243111 10.5168081 59.2311655 10.5168081"></polygon>
                <polygon id="Fill-16" points="59.2311655 25.1483835 68.5745168 25.1483835 68.5745168 20.324861 59.2311655 20.324861"></polygon>
                <polygon id="Fill-17" points="66.5683325 29.9752604 77.8030659 29.9752604 77.8030659 25.1517379 66.5683325 25.1517379"></polygon>
                <polygon id="Fill-18" points="78.7269267 34.8021373 83.7388722 34.8021373 83.7388722 29.9752604 78.7269267 29.9752604"></polygon>
                <polygon id="Fill-19" points="81.449727 34.9061215 88.4344155 34.9061215 88.4344155 30.0825989 81.449727 30.0825989"></polygon>
                <polygon id="Fill-20" points="78.7269267 39.6290142 83.7388722 39.6290142 83.7388722 20.2908366 78.7269267 20.2908366"></polygon>
                <polygon id="Fill-21" points="88.4377815 39.7363527 93.449727 39.7363527 93.449727 34.9094758 88.4377815 34.9094758"></polygon>
                <polygon id="Fill-22" points="99.1018205 15.3034331 108.445172 15.3034331 108.445172 10.5433592 99.1018205 10.5433592"></polygon>
                <polygon id="Fill-23" points="108.323997 10.4564302 113.335942 10.4564302 113.335942 3.15573697 108.323997 3.15573697"></polygon>
                <polygon id="Fill-24" points="142.61661 25.1483835 147.628555 25.1483835 147.628555 20.324861 142.61661 20.324861"></polygon>
                <polygon id="Fill-25" points="130.930887 44.8825731 159.314278 44.8825731 159.408536 39.9018299 131.025146 39.9018299"></polygon>
                <polygon id="Fill-26" points="123.157874 49.4739647 128.16982 49.4739647 128.16982 44.6504421 123.157874 44.6504421"></polygon>
                <polygon id="Fill-27" points="118.156027 54.3209675 123.167972 54.3209675 123.167972 49.497445 118.156027 49.497445"></polygon>
                <polygon id="Fill-28" points="131.131051 69.2611411 137.894139 69.2611411 137.894139 64.4376185 131.131051 64.4376185"></polygon>
                <polygon id="Fill-29" points="137.894139 74.088018 142.906084 74.088018 142.906084 69.2611411 137.894139 69.2611411"></polygon>
                <polygon id="Fill-30" points="126.538506 83.7551891 132.899023 83.7551891 132.899023 78.9283122 126.538506 78.9283122"></polygon>
                <polygon id="Fill-31" points="122.895328 93.5498246 127.907273 93.5498246 127.907273 88.7229477 122.895328 88.7229477"></polygon>
                <polygon id="Fill-32" points="161.361341 108.167983 168.124429 108.167983 168.124429 103.599389 161.361341 103.599389"></polygon>
                <polygon id="Fill-33" points="142.788275 123.098093 152.660697 123.098093 152.660697 118.274571 142.788275 118.274571"></polygon>
                <polygon id="Fill-34" points="127.897175 123.098093 132.905755 123.098093 132.905755 118.274571 127.897175 118.274571"></polygon>
                <polygon id="Fill-35" points="122.9019 123.098093 142.912816 123.098093 142.912816 118.274571 122.9019 118.274571"></polygon>
                <polygon id="Fill-36" points="130.89061 103.424964 146.863251 103.424964 146.863251 98.5980871 130.89061 98.5980871"></polygon>
                <polygon id="Fill-37" points="127.897175 103.408192 132.905755 103.408192 132.905755 93.5531789 127.897175 93.5531789"></polygon>
                <polygon id="Fill-38" points="118.034851 137.850424 127.907273 137.850424 127.907273 127.995411 118.034851 127.995411"></polygon>
                <polygon id="Fill-38" points="124 137.850424 132.895657 137.850424 132.895657 132.879312 124 132.879312"></polygon>
                <polygon id="Fill-39" points="122.895328 152.562504 130.569764 152.562504 130.569764 142.710845 122.895328 142.710845"></polygon>
                <polygon id="Fill-40" points="132.899023 108.449746 137.910968 108.449746 137.910968 98.5947328 132.899023 98.5947328"></polygon>
                <polygon id="Fill-41" points="152.505861 118.140398 157.517807 118.140398 157.517807 108.520187 152.505861 108.520187"></polygon>
                <polygon id="Fill-42" points="142.63344 123.051133 147.645385 123.051133 147.645385 98.5980871 142.63344 98.5980871"></polygon>
                <polygon id="Fill-43" points="142.61661 59.3155608 147.628555 59.3155608 147.628555 54.4920382 142.61661 54.4920382"></polygon>
                <polygon id="Fill-44" points="157.504343 54.448432 162.516289 54.448432 162.516289 49.6215551 157.504343 49.6215551"></polygon>
                <polygon id="Fill-45" points="167.23876 74.088018 172.250705 74.088018 172.250705 69.2611411 167.23876 69.2611411"></polygon>
                <polygon id="Fill-46" points="181.921168 84.3775945 188.905857 84.3775945 188.905857 78.3059067 181.921168 78.3059067"></polygon>
                <polygon id="Fill-47" points="165.487618 83.7551891 172.250705 83.7551891 172.250705 78.9283122 165.487618 78.9283122"></polygon>
                <polygon id="Fill-48" points="181.921168 123.051133 188.905857 123.051133 188.905857 103.599389 181.921168 103.599389"></polygon>
                <polygon id="Fill-49" points="181.826921 59.6208046 189.501357 59.6208046 189.501357 53.2444121 181.826921 53.2444121"></polygon>
                <polygon id="Fill-50" points="152.51001 64.2799651 171.913266 64.2799651 171.913266 59.4530882 152.51001 59.4530882"></polygon>
                <polygon id="Fill-51" points="181.921168 51 189.595605 51 189.595605 44.6236075 181.921168 44.6236075"></polygon>
                <polygon id="Fill-52" points="103.992591 54.448432 113.335942 54.448432 113.335942 49.6215551 103.992591 49.6215551"></polygon>
                <polygon id="Fill-53" points="88.4377815 59.3155608 97.7811329 59.3155608 97.7811329 54.4920382 88.4377815 54.4920382"></polygon>
                <polygon id="Fill-54" points="81.977632 54.448432 88.7407198 54.448432 88.7407198 49.6215551 81.977632 49.6215551"></polygon>
                <polygon id="Fill-55" points="69.0026079 54.448432 74.0145535 54.448432 74.0145535 49.6215551 69.0026079 49.6215551"></polygon>
                <polygon id="Fill-56" points="78.7269267 74.1819391 83.7388722 74.1819391 83.7388722 69.3550622 78.7269267 69.3550622"></polygon>
                <polygon id="Fill-57" points="54.1350704 59.3155608 59.1470159 59.3155608 59.1470159 54.4920382 54.1350704 54.4920382"></polygon>
                <polygon id="Fill-58" points="54.1350704 69.2611411 59.1470159 69.2611411 59.1470159 64.4376185 54.1350704 64.4376185"></polygon>
                <polygon id="Fill-59" points="47.2210675 89.0315458 54.205756 89.0315458 54.205756 79.1396348 47.2210675 79.1396348"></polygon>
                <polygon id="Fill-60" points="34.4743761 93.6739347 39.4863216 93.6739347 39.4863216 88.8470578 34.4743761 88.8470578"></polygon>
                <polygon id="Fill-61" points="49.2644961 98.5511265 54.2764416 98.5511265 54.2764416 93.727604 49.2644961 93.727604"></polygon>
                <polygon id="Fill-62" points="54.0172611 103.495405 59.0292066 103.495405 59.0292066 98.6718823 54.0172611 98.6718823"></polygon>
                <polygon id="Fill-63" points="64.1555955 103.495405 71.8273371 103.495405 71.8273371 98.5829843 64.1555955 98.5829843"></polygon>
                <polygon id="Fill-64" points="54.0138951 113.400733 63.886317 113.400733 63.886317 108.577211 54.0138951 108.577211"></polygon>
                <polygon id="Fill-65" points="9.7849064 103.495405 14.7968519 103.495405 14.7968519 98.6718823 9.7849064 98.6718823"></polygon>
                <polygon id="Fill-66" points="19.7818696 118.22761 24.7938151 118.22761 24.7938151 113.400733 19.7818696 113.400733"></polygon>
                <polygon id="Fill-67" points="2.34541743 128.119521 10.0171591 128.119521 10.0171591 123.292644 2.34541743 123.292644"></polygon>
                <polygon id="Fill-68" points="54.0172611 147.440446 59.0292066 147.440446 59.0292066 142.616923 54.0172611 142.616923"></polygon>
                <polygon id="Fill-69" points="68.8511388 147.584682 83.7153103 147.584682 83.7153103 142.757805 68.8511388 142.757805"></polygon>
                <polygon id="Fill-70" points="83.6378928 132.902792 94.8726262 132.902792 94.8726262 128.043924 83.6378928 128.043924"></polygon>
                <polygon id="Fill-71" points="78.8110762 137.716251 83.6547227 137.716251 83.6547227 132.889374 78.8110762 132.889374"></polygon>
                <polygon id="Fill-72" points="103.426494 128.119521 108.266775 128.119521 108.266775 123.292644 103.426494 123.292644"></polygon>
                <polygon id="Fill-73" points="98.4448427 123.18866 103.285123 123.18866 103.285123 118.361783 98.4448427 118.361783"></polygon>
                <polygon id="Fill-74" points="152.586645 152.562504 157.430292 152.562504 157.430292 147.738981 152.586645 147.738981"></polygon>
                <polygon id="Fill-75" points="152.586645 162.219612 157.430292 162.219612 157.430292 157.396089 152.586645 157.396089"></polygon>
                <polygon id="Fill-76" points="167.396961 162.323596 172.240607 162.323596 172.240607 157.500073 167.396961 157.500073"></polygon>
                <polygon id="Fill-77" points="172.082406 152.562504 176.922687 152.562504 176.922687 147.738981 172.082406 147.738981"></polygon>
                <polygon id="Fill-78" points="142.815203 142.751097 147.655483 142.751097 147.655483 137.92422 142.815203 137.92422"></polygon>
                <polygon id="Fill-79" points="130.757981 147.537722 137.742669 147.537722 137.742669 142.714199 130.757981 142.714199"></polygon>
                <polygon id="Fill-80" points="137.860479 157.389381 142.700759 157.389381 142.700759 152.565858 137.860479 152.565858"></polygon>
                <polygon id="Fill-81" points="113.268622 157.389381 118.112269 157.389381 118.112269 152.565858 113.268622 152.565858"></polygon>
                <polygon id="Fill-82" points="127.981325 181.788757 132.824971 181.788757 132.824971 172.051145 127.981325 172.051145"></polygon>
                <polygon id="Fill-83" points="118.112269 188.378988 122.952549 188.378988 122.952549 180.394379 118.112269 180.394379"></polygon>
                <polygon id="Fill-84" points="137.860479 167.224268 142.700759 167.224268 142.700759 162.400746 137.860479 162.400746"></polygon>
                <polygon id="Fill-85" points="109.664923 172.108169 122.895328 172.108169 122.895328 167.284646 109.664923 167.284646"></polygon>
                <polygon id="Fill-86" points="113.298916 181.788757 132.824971 181.788757 132.824971 176.96188 113.298916 176.96188"></polygon>
                <polygon id="Fill-87" points="147.658849 172.051145 152.502496 172.051145 152.502496 167.224268 147.658849 167.224268"></polygon>
                <polygon id="Fill-88" points="162.553314 179.439051 167.393595 179.439051 167.393595 172.138358 162.553314 172.138358"></polygon>
                <polygon id="Fill-89" points="172.240607 176.878022 177.080888 176.878022 177.080888 172.054499 172.240607 172.054499"></polygon>
                <polygon id="Fill-90" points="176.919321 172.051145 186.262672 172.051145 186.262672 152.562504 176.919321 152.562504"></polygon>
                <polygon id="Fill-91" points="167.396961 189.08945 172.240607 189.08945 172.240607 181.788757 167.396961 181.788757"></polygon>
                <polygon id="Fill-92" points="137.860479 176.878022 142.700759 176.878022 142.700759 172.054499 137.860479 172.054499"></polygon>
                <polygon id="Fill-93" points="132.899023 186.98461 146.129428 186.98461 146.129428 181.788757 132.899023 181.788757"></polygon>
                <polygon id="Fill-94" points="152.529423 181.788757 167.393595 181.788757 167.393595 176.96188 152.529423 176.96188"></polygon>
                <polygon id="Fill-95" points="142.700759 186.98461 147.54104 186.98461 147.54104 176.874668 142.700759 176.874668"></polygon>
                <polygon id="Fill-96" points="83.7220423 123.051133 88.5656888 123.051133 88.5656888 118.22761 83.7220423 118.22761"></polygon>
                <polygon id="Fill-97" points="103.645283 128.092687 118.095439 128.092687 118.095439 123.269164 103.645283 123.269164"></polygon>
                <polygon id="Fill-98" points="137.836917 83.7551891 156 83.7551891 156 78.9283122 137.836917 78.9283122"></polygon>
                <polygon id="Fill-99" points="127.907273 88.582066 147.500648 88.582066 147.500648 83.7585434 127.907273 83.7585434"></polygon>
                <polygon id="Fill-100" points="83.7220423 142.757805 88.5656888 142.757805 88.5656888 137.934283 83.7220423 137.934283"></polygon>
                <polygon id="Fill-101" points="100.997611 142.640404 110.638436 142.640404 110.638436 137.816881 100.997611 137.816881"></polygon>
                <polygon id="Fill-102" points="89 152.562504 111.138436 152.562504 111.138436 147.738981 89 147.738981"></polygon>
                <polygon id="Fill-103" points="71.775898 161.941203 78.7605865 161.941203 78.7605865 157.114326 71.775898 157.114326"></polygon>
                <polygon id="Fill-104" points="73.91694 189.260521 78.8346381 189.260521 78.8346381 181.959828 73.91694 181.959828"></polygon>
                <polygon id="Fill-105" points="93.4833868 189.149828 107.990764 189.149828 107.990764 181.849135 93.4833868 181.849135"></polygon>
                <polygon id="Fill-106" points="56.7976494 181.929639 66.0673845 181.929639 66.0673845 177.102762 56.7976494 177.102762"></polygon>
                <polygon id="Fill-107" points="51.3446723 162.323596 59.0191087 162.323596 59.0191087 157.500073 51.3446723 157.500073"></polygon>
                <polygon id="Fill-108" points="71.3453306 177.022258 78.8346381 177.022258 78.8346381 172.198735 71.3453306 172.198735"></polygon>
                <polygon id="Fill-109" points="78.8346381 181.849135 93.449727 181.849135 93.449727 177.022258 78.8346381 177.022258"></polygon>
                <polygon id="Fill-110" points="59.0494025 152.384724 68.8511388 152.384724 68.8511388 147.557848 59.0494025 147.557848"></polygon>
                <polygon id="Fill-111" points="59.0292066 172.185318 73.4793625 172.185318 73.4793625 162.397391 59.0292066 162.397391"></polygon>
                <polygon id="Fill-112" points="39.4896876 128.119521 44.5016331 128.119521 44.5016331 123.292644 39.4896876 123.292644"></polygon>
                <polygon id="Fill-113" points="39.4896876 142.746632 44.5016331 142.746632 44.5016331 127.916767 39.4896876 127.916767"></polygon>
                <polygon id="Fill-114" points="18.0307273 127.997202 24.7938151 127.997202 24.7938151 123.170325 18.0307273 123.170325"></polygon>
                <polygon id="Fill-115" points="24.635614 123.175243 29.6475595 123.175243 29.6475595 118.348366 24.635614 118.348366"></polygon>
                <polygon id="Fill-116" points="30.1429703 123.175243 39.4863216 123.175243 39.4863216 118.348366 30.1429703 118.348366"></polygon>
                <polygon id="Fill-117" points="29.4960904 149.678294 34.5080359 149.678294 34.5080359 137.860999 29.4960904 137.860999"></polygon>
                <polygon id="Fill-118" points="39.4627598 147.440446 49.2947899 147.440446 49.2947899 142.551287 39.4627598 142.551287"></polygon>
                <polygon id="Fill-119" points="34.5719896 132.88602 44.5050962 132.88602 44.5050962 128.062498 34.5719896 128.062498"></polygon>
                <polygon id="Fill-120" points="33.048111 113.407456 44.2828444 113.407456 44.2828444 108.50677 33.048111 108.50677"></polygon>
                <polygon id="Fill-121" points="39.4627598 118.22761 49.2947899 118.22761 49.2947899 113.400733 39.4627598 113.400733"></polygon>
                <polygon id="Fill-122" points="18.996634 152.166693 44.4915352 152.166693 44.4915352 147.339816 18.996634 147.339816"></polygon>
                <polygon id="Fill-123" points="4.7695949 113.484591 14.7968519 113.484591 14.7968519 108.657715 4.7695949 108.657715"></polygon>
                <polygon id="Fill-124" points="29.5566781 142.603506 44.5000038 142.603506 44.5000038 137.779984 29.5566781 137.779984"></polygon>
                <polygon id="Fill-125" points="3.16802086 152.166693 16.398426 152.166693 16.398426 147.339816 3.16802086 147.339816"></polygon>
                <polygon id="Fill-126" points="29.4725285 103.495405 39.4964196 103.495405 39.4964196 98.6718823 29.4725285 98.6718823"></polygon>
                <polygon id="Fill-127" points="88.4377815 49.7423109 93.449727 49.7423109 93.449727 44.9187883 88.4377815 44.9187883"></polygon>
                <polygon id="Fill-128" points="121.742784 25.2288874 129.58491 25.2288874 129.58491 20.4053648 121.742784 20.4053648"></polygon>
                <polygon id="Fill-129" points="123.555672 10.4933278 132.899023 10.4933278 132.899023 5.52221484 123.555672 5.52221484"></polygon>
                <polygon id="Fill-130" points="110.079186 34.9061215 121.584447 34.9061215 121.584447 30.0402985 110.079186 30.0402985"></polygon>
                <polygon id="Fill-131" points="111.353101 44.5158463 118.33779 44.5158463 118.33779 39.779959 111.353101 39.779959"></polygon>
                <polygon id="Fill-132" points="74.2367082 29.9752604 83.6883825 29.9752604 83.6883825 20.284609 74.2367082 20.284609"></polygon>
                <polygon id="Fill-133" points="69.2281287 20.2443571 74.2400742 20.2443571 74.2400742 5.414492 69.2281287 5.414492"></polygon>
                <polygon id="Fill-134" points="64.233013 10.4564302 98.4381107 10.4564302 98.4381107 3.15573697 64.233013 3.15573697"></polygon>
                <polygon id="Fill-135" points="2.50765575 5.62955331 191.938327 5.62955331 191.938327 0.802676415 2.50765575 0.802676415"></polygon>
                <polygon id="Fill-136" points="5.03214141 191.811487 186.926382 191.811487 186.926382 186.98461 5.03214141 186.98461"></polygon>
                <polygon id="Fill-137" points="34.491206 74.2557343 39.4795897 74.2557343 39.4795897 69.2846214 34.491206 69.2846214"></polygon>
                <polygon id="Fill-138" points="48.5369134 89.0315458 64.5095543 89.0315458 64.5095543 84.0604329 48.5369134 84.0604329"></polygon>
                <polygon id="Fill-139" points="69.167541 93.7443756 74.1559247 93.7443756 74.1559247 88.7732626 69.167541 88.7732626"></polygon>
                <polygon id="Fill-140" points="54.1485343 79.2302016 72.3116175 79.2302016 72.3116175 74.2557343 54.1485343 74.2557343"></polygon>
                <polygon id="Fill-141" points="59.4566862 79.0457136 74.3208577 79.0457136 74.3208577 74.0746007 59.4566862 74.0746007"></polygon>
                <polygon id="Fill-142" points="63.8459252 89.0315458 74.1559247 89.0315458 74.1559247 84.0604329 63.8459252 84.0604329"></polygon>
                <polygon id="Fill-143" points="24.645712 81.3752939 29.6340956 81.3752939 29.6340956 74.0746007 24.645712 74.0746007"></polygon>
                <polygon id="Fill-144" points="19.7919675 54.5255815 29.5869719 54.5255815 29.5869719 49.8194604 19.7919675 49.8194604"></polygon>
                <polygon id="Fill-145" points="24.6894697 59.4966945 34.48784 59.4966945 34.48784 54.5255815 24.6894697 54.5255815"></polygon>
                <polygon id="Fill-146" points="34.48784 54.6564003 44.2828444 54.6564003 44.2828444 49.6852873 34.48784 49.6852873"></polygon>
                <polygon id="Fill-147" points="88.3098742 69.1772829 98.4381107 69.1772829 98.4381107 64.2061699 88.3098742 64.2061699"></polygon>
                <polygon id="Fill-148" points="152.441908 44.8885993 189.593922 44.8885993 189.593922 39.914132 152.441908 39.914132"></polygon>
                <polygon id="Fill-149" points="93.3756755 74.1551045 103.503912 74.1551045 103.503912 69.1806372 93.3756755 69.1806372"></polygon>
                <polygon id="Fill-150" points="142.90945 69.2611411 152.515959 69.2611411 152.515959 64.186044 142.90945 64.186044"></polygon>
                <polygon id="Fill-151" points="162.516289 50.0234617 176.966445 50.0234617 176.966445 42.5187671 162.516289 42.5187671"></polygon>
                <polygon id="Fill-152" points="169.759629 54.7939277 187.922712 54.7939277 187.922712 49.8194604 169.759629 49.8194604"></polygon>
                <polygon id="Fill-153" points="172.240607 69.2108262 181.826921 69.2108262 181.826921 64.2363589 172.240607 64.2363589"></polygon>
                <polygon id="Fill-154" points="152.500504 118.301405 177.043862 118.301405 177.043862 113.330292 152.500504 113.330292"></polygon>
                <polygon id="Fill-155" points="117.940604 162.397391 132.895657 162.397391 132.895657 157.422924 117.940604 157.422924"></polygon>
                <polygon id="Fill-156" points="142.683929 132.969878 152.613573 132.969878 152.613573 127.998765 142.683929 127.998765"></polygon>
                <polygon id="Fill-157" points="162.149397 142.751097 172.240607 142.751097 172.240607 137.850424 162.149397 137.850424"></polygon>
                <polygon id="Fill-158" points="177.128012 78.9249579 189.566994 78.9249579 189.566994 69.1873459 177.128012 69.1873459"></polygon>
                <polygon id="Fill-159" points="177.128012 98.5276462 187.155269 98.5276462 187.155269 83.7417718 177.128012 83.7417718"></polygon>
                <polygon id="Fill-160" points="24.7332275 44.8550561 39.6344248 44.8550561 39.6344248 39.8839431 24.7332275 39.8839431"></polygon>
                <polygon id="Fill-161" points="14.8002179 84.0376351 19.7919675 84.0376351 19.7919675 69.2846214 14.8002179 69.2846214"></polygon>
                <polygon id="Fill-162" points="19.7919675 69.4489834 24.7803512 69.4489834 24.7803512 62.1482902 19.7919675 62.1482902"></polygon>
                <polygon id="Fill-163" points="3.81932657 79.0457136 19.7919675 79.0457136 19.7919675 74.0746007 3.81932657 74.0746007"></polygon>
                <polygon id="Fill-164" points="14.8978314 84.0403069 39.3853422 84.0403069 39.3853422 79.0658396 14.8978314 79.0658396"></polygon>
                <polygon id="Fill-165" points="13.6143309 64.4745161 29.5869719 64.4745161 29.5869719 59.5000488 13.6143309 59.5000488"></polygon>
                <polygon id="Fill-166" points="19.7919675 53.2444121 24.7803512 53.2444121 24.7803512 39.9174864 19.7919675 39.9174864"></polygon>
                <polygon id="Fill-167" points="42.3033695 30.1329138 49.288058 30.1329138 49.288058 15.343685 42.3033695 15.343685"></polygon>
                <polygon id="Fill-168" points="64.233013 34.9564364 69.2247627 34.9564364 69.2247627 15.4208345 64.233013 15.4208345"></polygon>
                <polygon id="Fill-169" points="88.7642817 25.1282576 93.7560313 25.1282576 93.7560313 9 88.7642817 9"></polygon>
                <polygon id="Fill-170" points="98.4414767 44.6504421 103.433226 44.6504421 103.433226 34.9094758 98.4414767 34.9094758"></polygon>
                <polygon id="Fill-171" points="93.449727 73 98.4381107 73 98.4381107 54.4920382 93.449727 54.4920382"></polygon>
                <polygon id="Fill-172" points="78.7370246 54.4886839 83.7287743 54.4886839 83.7287743 44.7477176 78.7370246 44.7477176"></polygon>
                <polygon id="Fill-173" points="64.0108583 64.370532 69.0026079 64.370532 69.0026079 54.63292 64.0108583 54.63292"></polygon>
                <polygon id="Fill-174" points="83.5907691 69.1772829 88.5825187 69.1772829 88.5825187 59.4396709 83.5907691 59.4396709"></polygon>
                <polygon id="Fill-175" points="74.0078215 74.1316242 78.9962052 74.1316242 78.9962052 59.563781 74.0078215 59.563781"></polygon>
                <polygon id="Fill-176" points="69.1204173 74.1316242 78.4637686 74.1316242 78.4637686 64.3940122 69.1204173 64.3940122"></polygon>
                <polygon id="Fill-177" points="49.27796 74.2557343 54.2663437 74.2557343 54.2663437 59.4396709 49.27796 59.4396709"></polygon>
                <polygon id="Fill-178" points="39.3887082 98.668528 44.3770919 98.668528 44.3770919 83.8491102 39.3887082 83.8491102"></polygon>
                <polygon id="Fill-179" points="24.6490779 113.484591 29.6374616 113.484591 29.6374616 98.668528 24.6490779 98.668528"></polygon>
                <polygon id="Fill-180" points="14.8002179 152.166693 19.7919675 152.166693 19.7919675 123.171888 14.8002179 123.171888"></polygon>
                <polygon id="Fill-181" points="39.4997856 186.98461 44.4915352 186.98461 44.4915352 149.971286 39.4997856 149.971286"></polygon>
                <polygon id="Fill-182" points="29.5061884 127.750545 34.494572 127.750545 34.494572 108.479037 29.5061884 108.479037"></polygon>
                <polygon id="Fill-183" points="42.2932715 186.98461 49.27796 186.98461 49.27796 167.153827 42.2932715 167.153827"></polygon>
                <polygon id="Fill-184" points="49.27796 167.153827 54.2663437 167.153827 54.2663437 147.806068 49.27796 147.806068"></polygon>
                <polygon id="Fill-185" points="54.027359 186.98461 59.0191087 186.98461 59.0191087 172.185318 54.027359 172.185318"></polygon>
                <polygon id="Fill-186" points="49.27796 142.529711 54.2663437 142.529711 54.2663437 118.445641 49.27796 118.445641"></polygon>
                <polygon id="Fill-187" points="3.66802086 142.529711 15.89506 142.529711 15.89506 133.020193 3.66802086 133.020193"></polygon>
                <polygon id="Fill-188" points="2.33531949 98.668528 10.0070611 98.668528 10.0070611 83.8491102 2.33531949 83.8491102"></polygon>
                <polygon id="Fill-189" points="44.2862104 93.9556982 49.27796 93.9556982 49.27796 79.1396348 44.2862104 79.1396348"></polygon>
                <polygon id="Fill-190" points="44.2862104 108.489998 49.27796 108.489998 49.27796 98.668528 44.2862104 98.668528"></polygon>
                <polygon id="Fill-191" points="49.2039084 113.400733 54.1956581 113.400733 54.1956581 103.579263 49.2039084 103.579263"></polygon>
                <polygon id="Fill-192" points="17.7956627 152.176372 24.7803512 152.176372 24.7803512 142.529711 17.7956627 142.529711"></polygon>
                <polygon id="Fill-193" points="69.167541 108.40614 74.1559247 108.40614 74.1559247 98.5846698 69.167541 98.5846698"></polygon>
                <polygon id="Fill-194" points="59.0224746 89.0315458 64.0108583 89.0315458 64.0108583 64.4476815 59.0224746 64.4476815"></polygon>
                <polygon id="Fill-195" points="103.345711 59.3558127 108.334094 59.3558127 108.334094 49.6182007 103.345711 49.6182007"></polygon>
                <polygon id="Fill-196" points="152.515959 64.186044 157.504343 64.186044 157.504343 54.448432 152.515959 54.448432"></polygon>
                <polygon id="Fill-197" points="152.515959 83.7585434 157.504343 83.7585434 157.504343 69.2175348 152.515959 69.2175348"></polygon>
                <polygon id="Fill-198" points="162.24701 88.6122549 167.23876 88.6122549 167.23876 73.9605535 162.24701 73.9605535"></polygon>
                <polygon id="Fill-199" points="177.128012 108.38266 182.119761 108.38266 182.119761 93.8416511 177.128012 93.8416511"></polygon>
                <polygon id="Fill-200" points="162.24701 128.042372 167.23876 128.042372 167.23876 113.330292 162.24701 113.330292"></polygon>
                <polygon id="Fill-201" points="157.251895 142.757805 162.243644 142.757805 162.243644 128.042372 157.251895 128.042372"></polygon>
                <polygon id="Fill-202" points="147.658849 162.219612 152.650599 162.219612 152.650599 147.738981 147.658849 147.738981"></polygon>
                <polygon id="Fill-203" points="157.251895 162.219612 162.243644 162.219612 162.243644 147.738981 157.251895 147.738981"></polygon>
                <polygon id="Fill-204" points="181.934632 137.850424 188.919321 137.850424 188.919321 128.042372 181.934632 128.042372"></polygon>
                <polygon id="Fill-205" points="172.240607 137.850424 177.228991 137.850424 177.228991 128.042372 172.240607 128.042372"></polygon>
                <polygon id="Fill-206" points="177.128012 142.751097 182.119761 142.751097 182.119761 132.946398 177.128012 132.946398"></polygon>
                <polygon id="Fill-207" points="132.909121 128.042372 137.90087 128.042372 137.90087 113.330292 132.909121 113.330292"></polygon>
                <polygon id="Fill-208" points="117.913676 142.757805 122.905426 142.757805 122.905426 128.042372 117.913676 128.042372"></polygon>
                <polygon id="Fill-209" points="108.276873 133.0638 113.265256 133.0638 113.265256 118.348366 108.276873 118.348366"></polygon>
                <polygon id="Fill-210" points="68.8511388 132.88602 73.8428884 132.88602 73.8428884 113.414151 68.8511388 113.414151"></polygon>
                <polygon id="Fill-211" points="59.1638458 123.051133 70.3985792 123.051133 70.3985792 113.417505 59.1638458 113.417505"></polygon>
                <polygon id="Fill-212" points="72.4741208 132.88602 78.8346381 132.88602 78.8346381 123.175243 72.4741208 123.175243"></polygon>
                <polygon id="Fill-213" points="73.8462544 152.260614 80.8309429 152.260614 80.8309429 142.757805 73.8462544 142.757805"></polygon>
                <polygon id="Fill-214" points="93.449727 137.84707 98.4381107 137.84707 98.4381107 123.131637 93.449727 123.131637"></polygon>
                <polygon id="Fill-214" points="89.5424538 137.84707 98.4381107 137.84707 98.4381107 127.992057 89.5424538 127.992057"></polygon>
                <polygon id="Fill-215" points="88.4579774 142.757805 93.449727 142.757805 93.449727 128.042372 88.4579774 128.042372"></polygon>
                <polygon id="Fill-216" points="108.276873 152.52896 113.265256 152.52896 113.265256 137.813527 108.276873 137.813527"></polygon>
                <polygon id="Fill-217" points="98.3674251 152.52896 103.359175 152.52896 103.359175 137.813527 98.3674251 137.813527"></polygon>
                <polygon id="Fill-218" points="93.449727 152.52896 100.434416 152.52896 100.434416 142.757805 93.449727 142.757805"></polygon>
                <polygon id="Fill-219" points="88.4579774 157.506782 93.449727 157.506782 93.449727 147.735627 88.4579774 147.735627"></polygon>
                <polygon id="Fill-220" points="64.1555955 188.893222 69.1439791 188.893222 69.1439791 177.075927 64.1555955 177.075927"></polygon>
                <polygon id="Fill-221" points="93.449727 167.103512 108.276873 167.103512 108.276873 157.335711 93.449727 157.335711"></polygon>
                <polygon id="Fill-222" points="83.5806711 172.175255 99.262776 172.175255 99.262776 162.407454 83.5806711 162.407454"></polygon>
                <polygon id="Fill-223" points="98.3674251 177.022258 103.359175 177.022258 103.359175 165.204963 98.3674251 165.204963"></polygon>
                <polygon id="Fill-224" points="108.276873 176.96188 113.265256 176.96188 113.265256 162.216258 108.276873 162.216258"></polygon>
                <polygon id="Fill-225" points="83.6479907 181.788757 88.6363744 181.788757 88.6363744 169.971462 83.6479907 169.971462"></polygon>
                <polygon id="Fill-226" points="78.8211742 157.110972 83.8095578 157.110972 83.8095578 142.757805 78.8211742 142.757805"></polygon>
                <polygon id="Fill-227" points="68.8511388 181.788757 73.8428884 181.788757 73.8428884 157.110972 68.8511388 157.110972"></polygon>
                <polygon id="Fill-228" points="59.1638458 142.395538 64.1555955 142.395538 64.1555955 127.680104 59.1638458 127.680104"></polygon>
                <polygon id="Fill-228" points="59.1638458 137.535118 66.8382822 137.535118 66.8382822 127.680104 59.1638458 127.680104"></polygon>
                <polygon id="Fill-229" points="64.1656934 137.729669 69.1574431 137.729669 69.1574431 113.400733 64.1656934 113.400733"></polygon>
                <polygon id="Fill-230" points="127.907273 167.0163 132.895657 167.0163 132.895657 132.922918 127.907273 132.922918"></polygon>
                <polygon id="Fill-231" points="182.123127 181.788757 189.107816 181.788757 189.107816 142.861789 182.123127 142.861789"></polygon>
                <polygon id="Fill-232" points="122.905426 123.051133 127.897175 123.051133 127.897175 103.629578 122.905426 103.629578"></polygon>
                <polygon id="Fill-233" points="157.251895 118.140398 162.243644 118.140398 162.243644 103.599389 157.251895 103.599389"></polygon>
                <polygon id="Fill-234" points="152.515959 103.408192 157.504343 103.408192 157.504343 88.8671838 152.515959 88.8671838"></polygon>
                <polygon id="Fill-235" points="167.248858 108.167983 172.240607 108.167983 172.240607 88.5954833 167.248858 88.5954833"></polygon>
                <polygon id="Fill-236" points="157.504343 98.5276462 162.496093 98.5276462 162.496093 83.7417718 157.504343 83.7417718"></polygon>
                <polygon id="Fill-236" points="153.600436 98.5276462 162.496093 98.5276462 162.496093 88.8654091 153.600436 88.8654091"></polygon>
                <polygon id="Fill-237" points="157.517807 73.9940968 162.506191 73.9940968 162.506191 59.4530882 157.517807 59.4530882"></polygon>
                <polygon id="Fill-237" points="153.054516 74.1920523 162.506191 73.9940968 162.506191 69.2209393 153.054516 69.2209393"></polygon>
                <polygon id="Fill-238" points="167.248858 64.2799651 172.240607 64.2799651 172.240607 49.6316181 167.248858 49.6316181"></polygon>
                <polygon id="Fill-239" points="127.897175 74.0712463 132.888925 74.0712463 132.888925 59.5201748 127.897175 59.5201748"></polygon>
                <polygon id="Fill-240" points="122.905426 83.7618977 127.897175 83.7618977 127.897175 74.1852935 122.905426 74.1852935"></polygon>
                <polygon id="Fill-241" points="118.169491 93.5565333 123.157874 93.5565333 123.157874 74.2183557 118.169491 74.2183557"></polygon>
                <polygon id="Fill-242" points="108.334094 69.1772829 117.849722 69.1772829 117.849722 59.4396709 108.334094 59.4396709"></polygon>
                <polygon id="Fill-243" points="118.169491 39.779959 123.157874 39.779959 123.157874 30.042347 118.169491 30.042347"></polygon>
                <polygon id="Fill-244" points="108.138868 25.1483835 113.127251 25.1483835 113.127251 15.4107715 108.138868 15.4107715"></polygon>
                <polygon id="Fill-245" points="122.908792 15.4476691 127.897175 15.4476691 127.897175 3.63037428 122.908792 3.63037428"></polygon>
                <polygon id="Fill-246" points="137.688814 20.1940422 142.680563 20.1940422 142.680563 10.4161783 137.688814 10.4161783"></polygon>
                <polygon id="Fill-247" points="130.899352 49.4940906 137.884041 49.4940906 137.884041 39.7162267 130.899352 39.7162267"></polygon>
                <polygon id="Fill-248" points="137.688814 44.6504421 142.680563 44.6504421 142.680563 30.1698114 137.688814 30.1698114"></polygon>
                <polygon id="Fill-249" points="127.927469 49.5064583 132.915853 49.5064583 132.915853 35.1375701 127.927469 35.1375701"></polygon>
                <polygon id="Fill-250" points="98.4414767 20.2779004 103.433226 20.2779004 103.433226 10.5402884 98.4414767 10.5402884"></polygon>
                <polygon id="Fill-251" points="108.334094 44.4860801 113.325844 44.4860801 113.325844 30.0389926 108.334094 30.0389926"></polygon>
                <polygon id="Fill-252" points="127.897175 30.0389926 132.888925 30.0389926 132.888925 15.5919052 127.897175 15.5919052"></polygon>
                <polygon id="Fill-253" points="118.169491 25.1282576 123.157874 25.1282576 123.157874 3.63037428 118.169491 3.63037428"></polygon>
                <polygon id="Fill-254" points="147.52421 49.477319 152.515959 49.477319 152.515959 3.63037428 147.52421 3.63037428"></polygon>
                <polygon id="Fill-255" points="93.449727 34.9061215 98.4381107 34.9061215 98.4381107 15.4107715 93.449727 15.4107715"></polygon>
                <polygon id="Fill-256" points="59.2446294 44.9187883 64.233013 44.9187883 64.233013 30.1329138 59.2446294 30.1329138"></polygon>
                <polygon id="Fill-257" points="12.441555 49.8194604 21.7849064 49.8194604 21.7849064 39.9174864 12.441555 39.9174864"></polygon>
                <polygon id="Fill-258" points="4.01884207 49.8194604 11.0035306 49.8194604 11.0035306 39.9174864 4.01884207 39.9174864"></polygon>
                <polygon id="Fill-259" points="44.2862104 64.4510358 49.27796 64.4510358 49.27796 54.5490618 44.2862104 54.5490618"></polygon>
                <polygon id="Fill-260" points="69.2247627 44.8315758 74.0044555 44.8315758 74.0044555 34.9296018 69.2247627 34.9296018"></polygon>
                <polygon id="Fill-261" points="39.3887082 69.1202593 44.3770919 69.1202593 44.3770919 59.5000488 39.3887082 59.5000488"></polygon>
                <polygon id="Fill-262" points="14.8002179 98.48404 19.7919675 98.48404 19.7919675 88.8638295 14.8002179 88.8638295"></polygon>
                <polygon id="Fill-263" points="3.37417022 78.901974 10.0070611 79.0222333 10.0070611 69.1202593 3.37417022 69"></polygon>
                <polygon id="Fill-264" points="39.3887082 44.8550561 44.3770919 44.8550561 44.3770919 3.21276054 39.3887082 3.21276054"></polygon>
                <polygon id="Fill-265" points="49.27796 54.6698176 54.2663437 54.6698176 54.2663437 30.1329138 49.27796 30.1329138"></polygon>
                <polygon id="Fill-266" points="10.0070611 69.321519 14.9954448 69.321519 14.9954448 39.914132 10.0070611 39.914132"></polygon>
                <g id="Group-275" transform="translate(71.492321, 71.859053)">
                    <path d="M41.912287,15.2306724 L41.905555,15.227318 L37.866378,11.5140778 L37.8495481,11.4973061 C37.7553006,11.4067393 37.6307593,11.3530701 37.4927541,11.3530701 C37.2066457,11.3530701 36.9710271,11.5845187 36.9710271,11.8696365 L36.9710271,32.2438201 L36.9710271,37.6040351 C36.9710271,37.8891529 37.2066457,38.1206015 37.4927541,38.1206015 C37.6341253,38.1206015 37.7620326,38.0669322 37.85628,37.9730111 L37.866378,37.9629481 L41.902189,33.9411097 L41.915653,33.9276924 C42.1512716,33.6895352 42.2993748,33.3574568 42.2993748,32.9985438 L42.2993748,16.1665297 C42.2993748,15.8042623 42.1479057,15.4721839 41.912287,15.2306724" id="Fill-267"></path>
                    <path d="M31.7783284,10.5758725 L10.0778497,10.5758725 C9.78837531,10.5792268 9.54939067,10.8140297 9.54939067,11.1025018 C9.54939067,11.2467379 9.60997833,11.380911 9.70422579,11.4781865 L25.3930626,25.9017936 L25.4065266,25.9185652 C25.50414,26.0091321 25.6286813,26.0628013 25.7700525,26.0628013 C26.0628928,26.0628013 26.2985115,25.8279984 26.2985115,25.5361719 L26.2985115,17.8782429 L26.2985115,17.8581169 C26.3018775,17.4958495 26.4499806,17.1637712 26.6855993,16.9256139 L26.6990632,16.9121966 L32.1485863,11.4815408 L32.1519522,11.4748322 C32.2495657,11.3775567 32.3067874,11.2467379 32.3067874,11.1025018 C32.3067874,10.8106754 32.0711687,10.5758725 31.7783284,10.5758725" id="Fill-269"></path>
                    <path d="M29.3787206,37.9968268 L13.6932497,23.5698653 L13.6764198,23.5530937 C13.5821724,23.4658812 13.4576311,23.4088576 13.3162599,23.4088576 C13.0234195,23.4088576 12.7844349,23.6470148 12.7844349,23.9388413 L12.7844349,31.5967704 L12.7844349,31.6168964 C12.7810689,31.9791637 12.6329657,32.3112421 12.3939811,32.5493993 L12.3838832,32.5628166 L6.93436013,37.9934725 L6.92762817,38.0001811 C6.83674668,38.0941023 6.77615903,38.224921 6.77615903,38.3691571 C6.77615903,38.6609836 7.01177769,38.8991408 7.30461802,38.8991408 L29.0084627,38.8991408 C29.2979371,38.8957865 29.5335557,38.6576292 29.5335557,38.3691571 C29.5335557,38.224921 29.4729681,38.0907479 29.3787206,37.9968268" id="Fill-271"></path>
                    <path d="M46.0376331,40.2241001 C46.0376331,43.2597662 43.5670032,45.7218424 40.5174245,45.7218424 L9.456153,45.7218424 C5.91177514,45.7218424 3.03722747,42.857247 3.03722747,39.321786 L3.03722747,8.44855811 C3.03722747,5.36928571 5.54488322,2.87031191 8.63821965,2.87031191 L39.8004706,2.87031191 C43.247235,2.87031191 46.0376331,5.6510492 46.0376331,9.08588029 L46.0376331,40.2241001 Z M40.8102649,0.321023211 L8.40596697,0.321023211 C4.03019183,0.321023211 0.479082005,3.85648412 0.479082005,8.22046386 L0.479082005,40.2777693 C0.479082005,44.692064 4.0705836,48.2711311 8.50358041,48.2711311 L40.5477183,48.2711311 C44.9908131,48.2711311 48.5957786,44.6786466 48.5957786,40.2509347 L48.5957786,8.07958212 C48.5957786,3.79610623 45.1119884,0.321023211 40.8102649,0.321023211 L40.8102649,0.321023211 Z" id="Fill-273"></path>
                </g>
            </g>
        </g>
    </g>
</svg>