<?xml version="1.0" encoding="UTF-8"?>
<svg width="24px" height="28px" viewBox="0 0 24 28" version="1.1" xmlns="http://www.w3.org/2000/svg" xmlns:xlink="http://www.w3.org/1999/xlink">
    <!-- Generator: Sketch 43 (38999) - http://www.bohemiancoding.com/sketch -->
    <title>welfare</title>
    <desc>Created with Sketch.</desc>
    <defs>
        <polygon id="path-1" points="0 4.10064511 0 0.320607453 7.1843877 0.320607453 7.1843877 7.88068277 0 7.88068277 0 4.10064511"></polygon>
        <polygon id="path-3" points="13.5227391 22.7357803 0.197349978 22.7357803 0.197349978 0.0453068086 13.5227391 0.0453068086"></polygon>
        <polygon id="path-5" points="13.5400011 19.1112356 0.229833218 19.1112356 0.229833218 0.24004371 13.5400011 0.24004371 13.5400011 19.1112356"></polygon>
        <polygon id="path-7" points="8.36430196 0.256687563 8.36430196 7.8186042 0.286429823 7.8186042 0.286429823 0.256687563 8.36430196 0.256687563"></polygon>
    </defs>
    <g id="Web6.0" stroke="none" stroke-width="1" fill="none" fill-rule="evenodd">
        <g id="Group-2" transform="translate(1.000000, 0.000000)">
            <g id="Group-3" transform="translate(0.000000, 0.008864)">
                <mask id="mask-2" fill="white">
                    <use xlink:href="#path-1"></use>
                </mask>
                <g id="Clip-2"></g>
                <path d="M7.1843877,4.10061216 C7.1843877,6.1880204 5.57609692,7.88068277 3.59203728,7.88068277 C1.60829077,7.88068277 0,6.1880204 0,4.10061216 C0,2.01287442 1.60829077,0.320541552 3.59203728,0.320541552 C5.57609692,0.320541552 7.1843877,2.01287442 7.1843877,4.10061216" id="Fill-1" fill="#FCC64D" mask="url(#mask-2)"></path>
            </g>
            <path d="M6.31116347,4.10947582 C6.31116347,5.6894478 5.09398546,6.9705596 3.59216253,6.9705596 C2.09033961,6.9705596 0.873161603,5.6894478 0.873161603,4.10947582 C0.873161603,2.52917433 2.09033961,1.24806254 3.59216253,1.24806254 C5.09398546,1.24806254 6.31116347,2.52917433 6.31116347,4.10947582" id="Fill-4" fill="#FEFF76"></path>
            <g id="Group-8" transform="translate(3.444548, 4.292416)">
                <mask id="mask-4" fill="white">
                    <use xlink:href="#path-3"></use>
                </mask>
                <g id="Clip-7"></g>
                <path d="M10.5420705,22.7359451 L3.80171631,22.7359451 C3.30444884,22.7359451 2.88452712,22.3477893 2.82002013,21.8291499 L0.202476794,0.753081535 C0.155818826,0.377776408 0.433574651,0.0453068086 0.793373346,0.0453068086 L12.5327061,0.0453068086 C13.1189055,0.0453068086 13.5770304,0.578444382 13.5175336,1.19198095 L11.526898,21.7994945 C11.475543,22.3309846 11.0499847,22.7359451 10.5420705,22.7359451" id="Fill-6" fill="#B9D4F1" mask="url(#mask-4)"></path>
            </g>
            <g id="Group-11" transform="translate(3.444548, 7.916961)">
                <mask id="mask-6" fill="white">
                    <use xlink:href="#path-5"></use>
                </mask>
                <g id="Clip-10"></g>
                <path d="M10.8321327,19.1114004 L3.51653905,19.1114004 C3.18022591,19.1114004 2.89432842,18.8537282 2.84203392,18.5044539 L0.238268779,1.06973494 C0.173135508,0.633801065 0.493478472,0.24004371 0.912773905,0.24004371 L12.8572138,0.24004371 C13.267115,0.24004371 13.5846397,0.616996358 13.5348503,1.04535164 L11.5097692,18.4800706 C11.4678084,18.8405481 11.1772138,19.1114004 10.8321327,19.1114004" id="Fill-9" fill="#F15B31" mask="url(#mask-6)"></path>
            </g>
            <path d="M11.2293517,26.6550664 L14.8495717,8.15670832 L13.92017,8.15670832 L10.3384664,26.4646131 C10.2899295,26.7166837 10.4446211,26.9624937 10.6838606,27.0138963 L10.7076593,27.0188389 C10.9472119,27.069912 11.1808149,26.9074665 11.2293517,26.6550664" id="Fill-12" fill="#CE3E06"></path>
            <g id="Group-17" transform="translate(14.091333, 0.338368)">
                <mask id="mask-8" fill="white">
                    <use xlink:href="#path-7"></use>
                </mask>
                <g id="Clip-16"></g>
                <path d="M7.85347549,0.262417036 L1.86559851,1.24598666 C1.68303747,1.27597153 1.53711389,1.42260084 1.50016328,1.61338369 L0.286429823,7.8186042 L1.2158315,7.8186042 L2.27048947,2.42923575 C2.30712693,2.2384529 2.45305051,2.0921531 2.63561156,2.06216823 L7.99000485,1.18239238 C8.17788928,1.151419 8.32600485,0.997870104 8.3579452,0.800826674 C8.408674,0.487138806 8.15252488,0.21332093 7.85347549,0.262417036" id="Fill-15" fill="#F08C39" mask="url(#mask-8)"></path>
            </g>
        </g>
    </g>
</svg>